<?xml version='1.0' encoding='UTF-8' standalone='no'?>
<svg viewBox="0 0 2970 2100" height="210mm" xmlns:dc="http://purl.org/dc/elements/1.1/" xmlns:rdf="http://www.w3.org/1999/02/22-rdf-syntax-ns#" xmlns:sodipodi="http://sodipodi.sourceforge.net/DTD/sodipodi-0.dtd" xmlns:freecad="https://www.freecad.org/wiki/index.php?title=Svg_Namespace" baseProfile="tiny" xmlns:xlink="http://www.w3.org/1999/xlink" version="1.2" xmlns:svg="http://www.w3.org/2000/svg" xmlns:cc="http://creativecommons.org/ns#" xmlns:inkscape="http://www.inkscape.org/namespaces/inkscape" xmlns="http://www.w3.org/2000/svg" width="297mm">
 <title>FreeCAD SVG Export</title>
 <desc>Drawing page: Page exported from FreeCAD document: Unnamed</desc>
 <defs/>
 <g inkscape:label="TechDraw" id="Page" inkscape:groupmode="layer">
  <g style="stroke: none;" transform="scale(10.000000, 10.000000)" id="Default_Template_A4_Landscape2.svg">
   <metadata id="metadata8">
    <rdf:RDF>
     <cc:Work rdf:about="">
      <dc:format>image/svg+xml</dc:format>
      <dc:type rdf:resource="http://purl.org/dc/dcmitype/StillImage"/>
     </cc:Work>
    </rdf:RDF>
   </metadata>
  </g>
  <g stroke="black" fill-rule="evenodd" stroke-linecap="square" stroke-width="1" fill="none" id="DrawingContent" stroke-linejoin="bevel">
   <g stroke-opacity="1" stroke="#000000" font-style="normal" stroke-linecap="square" stroke-width="1" transform="matrix(1,0,0,1,1485,1050)" font-family="Sans Serif" font-size="31.75" font-weight="400" fill="none" stroke-linejoin="bevel">
    <rect y="0" height="0" x="0" width="0"/>
   </g>
   <g fill-opacity="0" stroke="none" font-style="normal" transform="matrix(1,0,0,1,1485,1050)" font-family="Sans Serif" font-size="31.75" font-weight="400" fill="#f1f3f5">
    <path fill-rule="evenodd" vector-effect="non-scaling-stroke" d="M-173.943,231.972 C-187.653,299.052 -144.388,364.545 -77.3083,378.255 C-10.2283,391.965 55.2648,348.7 68.9747,281.62 L173.943,-231.972 C187.653,-299.052 144.388,-364.545 77.3083,-378.255 C10.2283,-391.965 -55.2648,-348.7 -68.9747,-281.62 L-173.943,231.972"/>
   </g>
   <g fill-opacity="0" stroke="none" font-style="normal" transform="matrix(1,0,0,1,1485,1050)" font-family="Sans Serif" font-size="31.75" font-weight="400" fill="#f1f3f5">
    <path fill-rule="evenodd" vector-effect="non-scaling-stroke" d="M27.3643,256.796 C27.3643,300.895 -8.38516,336.645 -52.4843,336.645 C-96.5835,336.645 -132.333,300.895 -132.333,256.796 C-132.333,212.697 -96.5835,176.947 -52.4843,176.947 C-8.38516,176.947 27.3643,212.697 27.3643,256.796 "/>
   </g>
   <g stroke-opacity="1" stroke="#000000" font-style="normal" stroke-linecap="round" stroke-width="7" transform="matrix(1,0,0,1,1485,1050)" font-family="Sans Serif" font-size="31.75" font-weight="400" fill="none" stroke-linejoin="bevel">
    <path fill-rule="evenodd" vector-effect="none" d="M-173.943,231.972 C-187.653,299.052 -144.388,364.545 -77.3083,378.255 C-10.2283,391.965 55.2648,348.7 68.9747,281.62 "/>
   </g>
   <g stroke-opacity="1" stroke="#000000" font-style="normal" stroke-linecap="round" stroke-width="7" transform="matrix(1,0,0,1,1485,1050)" font-family="Sans Serif" font-size="31.75" font-weight="400" fill="none" stroke-linejoin="bevel">
    <path fill-rule="evenodd" vector-effect="none" d="M-173.943,231.972 L-68.9747,-281.62"/>
   </g>
   <g stroke-opacity="1" stroke="#000000" font-style="normal" stroke-linecap="round" stroke-width="7" transform="matrix(1,0,0,1,1485,1050)" font-family="Sans Serif" font-size="31.75" font-weight="400" fill="none" stroke-linejoin="bevel">
    <path fill-rule="evenodd" vector-effect="none" d="M68.9747,281.62 L173.943,-231.972"/>
   </g>
   <g stroke-opacity="1" stroke="#000000" font-style="normal" stroke-linecap="round" stroke-width="7" transform="matrix(1,0,0,1,1485,1050)" font-family="Sans Serif" font-size="31.75" font-weight="400" fill="none" stroke-linejoin="bevel">
    <path fill-rule="evenodd" vector-effect="none" d="M173.943,-231.972 C187.653,-299.052 144.388,-364.545 77.3083,-378.255 C10.2283,-391.965 -55.2648,-348.7 -68.9747,-281.62 "/>
   </g>
   <g stroke-opacity="1" stroke="#000000" font-style="normal" stroke-linecap="round" stroke-width="7" transform="matrix(1,0,0,1,1485,1050)" font-family="Sans Serif" font-size="31.75" font-weight="400" fill="none" stroke-linejoin="bevel">
    <path fill-rule="evenodd" vector-effect="none" d="M27.3643,256.796 C27.3643,300.895 -8.38516,336.645 -52.4843,336.645 C-96.5835,336.645 -132.333,300.895 -132.333,256.796 C-132.333,212.697 -96.5835,176.947 -52.4843,176.947 C-8.38516,176.947 27.3643,212.697 27.3643,256.796 "/>
   </g>
   <g fill-opacity="0" stroke="none" font-style="normal" transform="matrix(1,0,0,1,2211.45,1050)" font-family="Sans Serif" font-size="31.75" font-weight="400" fill="#f1f3f5">
    <path fill-rule="evenodd" vector-effect="non-scaling-stroke" d="M-50,231.972 L-50,380.766 L50,380.766 L50,231.972 L50,-281.62 L50,-380.766 L-50,-380.766 L-50,-281.62 L-50,231.972"/>
   </g>
   <g stroke-opacity="1" stroke="#000000" font-style="normal" stroke-linecap="round" stroke-width="7" transform="matrix(1,0,0,1,2211.45,1050)" font-family="Sans Serif" font-size="31.75" font-weight="400" fill="none" stroke-linejoin="bevel">
    <path fill-rule="evenodd" vector-effect="none" d="M-50,231.972 L-50,380.766"/>
   </g>
   <g stroke-opacity="1" stroke="#000000" font-style="normal" stroke-linecap="round" stroke-width="7" transform="matrix(1,0,0,1,2211.45,1050)" font-family="Sans Serif" font-size="31.75" font-weight="400" fill="none" stroke-linejoin="bevel">
    <path fill-rule="evenodd" vector-effect="none" d="M50,231.972 L50,380.766"/>
   </g>
   <g stroke-opacity="1" stroke="#000000" font-style="normal" stroke-linecap="round" stroke-width="7" transform="matrix(1,0,0,1,2211.45,1050)" font-family="Sans Serif" font-size="31.75" font-weight="400" fill="none" stroke-linejoin="bevel">
    <path fill-rule="evenodd" vector-effect="none" d="M-50,231.972 L-50,-281.62"/>
   </g>
   <g stroke-opacity="1" stroke="#000000" font-style="normal" stroke-linecap="round" stroke-width="7" transform="matrix(1,0,0,1,2211.45,1050)" font-family="Sans Serif" font-size="31.75" font-weight="400" fill="none" stroke-linejoin="bevel">
    <path fill-rule="evenodd" vector-effect="none" d="M50,231.972 L50,-281.62"/>
   </g>
   <g stroke-opacity="1" stroke="#000000" font-style="normal" stroke-linecap="round" stroke-width="7" transform="matrix(1,0,0,1,2211.45,1050)" font-family="Sans Serif" font-size="31.75" font-weight="400" fill="none" stroke-linejoin="bevel">
    <path fill-rule="evenodd" vector-effect="none" d="M-50,-380.766 L-50,-281.62"/>
   </g>
   <g stroke-opacity="1" stroke="#000000" font-style="normal" stroke-linecap="round" stroke-width="7" transform="matrix(1,0,0,1,2211.45,1050)" font-family="Sans Serif" font-size="31.75" font-weight="400" fill="none" stroke-linejoin="bevel">
    <path fill-rule="evenodd" vector-effect="none" d="M50,-380.766 L50,-281.62"/>
   </g>
   <g stroke-opacity="1" stroke="#000000" font-style="normal" stroke-linecap="round" stroke-width="7" transform="matrix(1,0,0,1,2211.45,1050)" font-family="Sans Serif" font-size="31.75" font-weight="400" fill="none" stroke-linejoin="bevel">
    <path fill-rule="evenodd" vector-effect="none" d="M50,380.766 L-50,380.766"/>
   </g>
   <g stroke-opacity="1" stroke="#000000" font-style="normal" stroke-linecap="round" stroke-width="7" transform="matrix(1,0,0,1,2211.45,1050)" font-family="Sans Serif" font-size="31.75" font-weight="400" fill="none" stroke-linejoin="bevel">
    <path fill-rule="evenodd" vector-effect="none" d="M50,-380.766 L-50,-380.766"/>
   </g>
   <g stroke-opacity="1" stroke="#000000" font-style="normal" stroke-dasharray="42,10.5" stroke-dashoffset="0" stroke-linecap="round" stroke-width="3.5" transform="matrix(1,0,0,1,2211.45,1050)" font-family="Sans Serif" font-size="31.75" font-weight="400" fill="none" stroke-linejoin="bevel">
    <path fill-rule="evenodd" vector-effect="none" d="M-50,380.766 L-50,281.62"/>
   </g>
   <g stroke-opacity="1" stroke="#000000" font-style="normal" stroke-dasharray="42,10.5" stroke-dashoffset="0" stroke-linecap="round" stroke-width="3.5" transform="matrix(1,0,0,1,2211.45,1050)" font-family="Sans Serif" font-size="31.75" font-weight="400" fill="none" stroke-linejoin="bevel">
    <path fill-rule="evenodd" vector-effect="none" d="M-50,281.62 L-50,-231.972"/>
   </g>
   <g stroke-opacity="1" stroke="#000000" font-style="normal" stroke-dasharray="42,10.5" stroke-dashoffset="0" stroke-linecap="round" stroke-width="3.5" transform="matrix(1,0,0,1,2211.45,1050)" font-family="Sans Serif" font-size="31.75" font-weight="400" fill="none" stroke-linejoin="bevel">
    <path fill-rule="evenodd" vector-effect="none" d="M-50,-231.972 L-50,-380.766"/>
   </g>
   <g stroke-opacity="1" stroke="#000000" font-style="normal" stroke-dasharray="42,10.5" stroke-dashoffset="0" stroke-linecap="round" stroke-width="3.5" transform="matrix(1,0,0,1,2211.45,1050)" font-family="Sans Serif" font-size="31.75" font-weight="400" fill="none" stroke-linejoin="bevel">
    <path fill-rule="evenodd" vector-effect="none" d="M50,-231.972 L50,-380.766"/>
   </g>
   <g stroke-opacity="1" stroke="#000000" font-style="normal" stroke-dasharray="42,10.5" stroke-dashoffset="0" stroke-linecap="round" stroke-width="3.5" transform="matrix(1,0,0,1,2211.45,1050)" font-family="Sans Serif" font-size="31.75" font-weight="400" fill="none" stroke-linejoin="bevel">
    <path fill-rule="evenodd" vector-effect="none" d="M30,176.947 L30,336.645"/>
   </g>
   <g stroke-opacity="1" stroke="#000000" font-style="normal" stroke-dasharray="42,10.5" stroke-dashoffset="0" stroke-linecap="round" stroke-width="3.5" transform="matrix(1,0,0,1,2211.45,1050)" font-family="Sans Serif" font-size="31.75" font-weight="400" fill="none" stroke-linejoin="bevel">
    <path fill-rule="evenodd" vector-effect="none" d="M50,380.766 L50,380.173 L50,378.402 L50,375.468 L50,371.4 L50,366.237 L50,360.028 L50,352.832 L50,344.719 L50,336.645"/>
   </g>
   <g stroke-opacity="1" stroke="#000000" font-style="normal" stroke-dasharray="42,10.5" stroke-dashoffset="0" stroke-linecap="round" stroke-width="3.5" transform="matrix(1,0,0,1,2211.45,1050)" font-family="Sans Serif" font-size="31.75" font-weight="400" fill="none" stroke-linejoin="bevel">
    <path fill-rule="evenodd" vector-effect="none" d="M50,336.645 L50,335.765 L50,326.056 L50,315.686 L50,304.753 L50,293.361 L50,281.62"/>
   </g>
   <g stroke-opacity="1" stroke="#000000" font-style="normal" stroke-dasharray="42,10.5" stroke-dashoffset="0" stroke-linecap="round" stroke-width="3.5" transform="matrix(1,0,0,1,2211.45,1050)" font-family="Sans Serif" font-size="31.75" font-weight="400" fill="none" stroke-linejoin="bevel">
    <path fill-rule="evenodd" vector-effect="none" d="M50,176.947 L50,178.949 L50,184.855 L50,194.368 L50,207.011 L50,222.151 L50,239.028 L50,256.796 L50,274.564 L50,281.62"/>
   </g>
   <g stroke-opacity="1" stroke="#000000" font-style="normal" stroke-dasharray="42,10.5" stroke-dashoffset="0" stroke-linecap="round" stroke-width="3.5" transform="matrix(1,0,0,1,2211.45,1050)" font-family="Sans Serif" font-size="31.75" font-weight="400" fill="none" stroke-linejoin="bevel">
    <path fill-rule="evenodd" vector-effect="none" d="M50,281.62 L50,256.796"/>
   </g>
   <g stroke-opacity="1" stroke="#000000" font-style="normal" stroke-dasharray="42,10.5" stroke-dashoffset="0" stroke-linecap="round" stroke-width="3.5" transform="matrix(1,0,0,1,2211.45,1050)" font-family="Sans Serif" font-size="31.75" font-weight="400" fill="none" stroke-linejoin="bevel">
    <path fill-rule="evenodd" vector-effect="none" d="M50,256.796 L50,-231.972"/>
   </g>
   <g stroke-opacity="1" stroke="#000000" font-style="normal" stroke-dasharray="42,10.5" stroke-dashoffset="0" stroke-linecap="round" stroke-width="3.5" transform="matrix(1,0,0,1,2211.45,1050)" font-family="Sans Serif" font-size="31.75" font-weight="400" fill="none" stroke-linejoin="bevel">
    <path fill-rule="evenodd" vector-effect="none" d="M50,336.645 L50,336.143 L50,334.643 L50,332.164 L50,328.737 L50,324.406 L50,319.224 L50,313.257 L50,306.581 L50,299.278 L50,291.441 L50,283.168 L50,281.62"/>
   </g>
   <g stroke-opacity="1" stroke="#000000" font-style="normal" stroke-dasharray="42,10.5" stroke-dashoffset="0" stroke-linecap="round" stroke-width="3.5" transform="matrix(1,0,0,1,2211.45,1050)" font-family="Sans Serif" font-size="31.75" font-weight="400" fill="none" stroke-linejoin="bevel">
    <path fill-rule="evenodd" vector-effect="none" d="M30,336.645 L50,336.645"/>
   </g>
   <g stroke-opacity="1" stroke="#000000" font-style="normal" stroke-dasharray="42,10.5" stroke-dashoffset="0" stroke-linecap="round" stroke-width="3.5" transform="matrix(1,0,0,1,2211.45,1050)" font-family="Sans Serif" font-size="31.75" font-weight="400" fill="none" stroke-linejoin="bevel">
    <path fill-rule="evenodd" vector-effect="none" d="M30,176.947 L50,176.947"/>
   </g>
   <g fill-opacity="0" stroke="none" font-style="normal" transform="matrix(1,0,0,1,1485,399.234)" font-family="Sans Serif" font-size="31.75" font-weight="400" fill="#f1f3f5">
    <path fill-rule="evenodd" vector-effect="non-scaling-stroke" d="M-176.454,-50 L-176.454,50 L68.9747,50 L173.943,50 L176.454,50 L176.454,-50 L173.943,-50 L68.9747,-50 L-176.454,-50"/>
   </g>
   <g stroke-opacity="1" stroke="#000000" font-style="normal" stroke-linecap="round" stroke-width="7" transform="matrix(1,0,0,1,1485,399.234)" font-family="Sans Serif" font-size="31.75" font-weight="400" fill="none" stroke-linejoin="bevel">
    <path fill-rule="evenodd" vector-effect="none" d="M-176.454,50 L68.9747,50"/>
   </g>
   <g stroke-opacity="1" stroke="#000000" font-style="normal" stroke-linecap="round" stroke-width="7" transform="matrix(1,0,0,1,1485,399.234)" font-family="Sans Serif" font-size="31.75" font-weight="400" fill="none" stroke-linejoin="bevel">
    <path fill-rule="evenodd" vector-effect="none" d="M-176.454,-50 L68.9747,-50"/>
   </g>
   <g stroke-opacity="1" stroke="#000000" font-style="normal" stroke-linecap="round" stroke-width="7" transform="matrix(1,0,0,1,1485,399.234)" font-family="Sans Serif" font-size="31.75" font-weight="400" fill="none" stroke-linejoin="bevel">
    <path fill-rule="evenodd" vector-effect="none" d="M68.9747,50 L173.943,50"/>
   </g>
   <g stroke-opacity="1" stroke="#000000" font-style="normal" stroke-linecap="round" stroke-width="7" transform="matrix(1,0,0,1,1485,399.234)" font-family="Sans Serif" font-size="31.75" font-weight="400" fill="none" stroke-linejoin="bevel">
    <path fill-rule="evenodd" vector-effect="none" d="M68.9747,-50 L173.943,-50"/>
   </g>
   <g stroke-opacity="1" stroke="#000000" font-style="normal" stroke-linecap="round" stroke-width="7" transform="matrix(1,0,0,1,1485,399.234)" font-family="Sans Serif" font-size="31.75" font-weight="400" fill="none" stroke-linejoin="bevel">
    <path fill-rule="evenodd" vector-effect="none" d="M173.943,50 L176.454,50"/>
   </g>
   <g stroke-opacity="1" stroke="#000000" font-style="normal" stroke-linecap="round" stroke-width="7" transform="matrix(1,0,0,1,1485,399.234)" font-family="Sans Serif" font-size="31.75" font-weight="400" fill="none" stroke-linejoin="bevel">
    <path fill-rule="evenodd" vector-effect="none" d="M173.943,-50 L176.454,-50"/>
   </g>
   <g stroke-opacity="1" stroke="#000000" font-style="normal" stroke-linecap="round" stroke-width="7" transform="matrix(1,0,0,1,1485,399.234)" font-family="Sans Serif" font-size="31.75" font-weight="400" fill="none" stroke-linejoin="bevel">
    <path fill-rule="evenodd" vector-effect="none" d="M-176.454,-50 L-176.454,50"/>
   </g>
   <g stroke-opacity="1" stroke="#000000" font-style="normal" stroke-linecap="round" stroke-width="7" transform="matrix(1,0,0,1,1485,399.234)" font-family="Sans Serif" font-size="31.75" font-weight="400" fill="none" stroke-linejoin="bevel">
    <path fill-rule="evenodd" vector-effect="none" d="M176.454,-50 L176.454,50"/>
   </g>
  </g>
 </g>
</svg>
