{"accessors":[{"bufferView":0,"byteOffset":0,"componentType":5126,"count":4,"max":[-0.04069393500000001,0.01,0.035804192],"min":[-0.04069393500000001,0.0,-0.035804192],"type":"VEC3"},{"bufferView":0,"byteOffset":48,"componentType":5126,"count":4,"max":[0.04069393500000001,0.01,-0.035804192],"min":[-0.04069393500000001,0.0,-0.035804192],"type":"VEC3"},{"bufferView":0,"byteOffset":96,"componentType":5126,"count":4,"max":[0.04069393500000001,0.01,0.035804192],"min":[-0.04069393500000001,0.0,0.035804192],"type":"VEC3"},{"bufferView":0,"byteOffset":144,"componentType":5126,"count":4,"max":[0.04069393500000001,0.0,0.035804192],"min":[-0.04069393500000001,0.0,-0.035804192],"type":"VEC3"},{"bufferView":0,"byteOffset":192,"componentType":5126,"count":8,"max":[0.04069393500000001,0.01,0.035804192],"min":[-0.04069393500000001,0.01,-0.035804192],"type":"VEC3"},{"bufferView":0,"byteOffset":288,"componentType":5126,"count":4,"max":[0.04069393500000001,0.01,0.035804192],"min":[0.04069393500000001,0.0,-0.035804192],"type":"VEC3"},{"bufferView":0,"byteOffset":336,"componentType":5126,"count":4,"max":[-0.02104423,0.02,0.025632841],"min":[-0.02104423,0.01,-0.025632841],"type":"VEC3"},{"bufferView":0,"byteOffset":384,"componentType":5126,"count":4,"max":[0.02104423,0.02,0.025632841],"min":[-0.02104423,0.01,0.025632841],"type":"VEC3"},{"bufferView":0,"byteOffset":432,"componentType":5126,"count":4,"max":[0.02104423,0.02,0.025632841],"min":[0.02104423,0.01,-0.025632841],"type":"VEC3"},{"bufferView":0,"byteOffset":480,"componentType":5126,"count":4,"max":[0.02104423,0.02,-0.025632841],"min":[-0.02104423,0.01,-0.025632841],"type":"VEC3"},{"bufferView":0,"byteOffset":528,"componentType":5126,"count":10,"max":[0.02104423,0.02,0.025632841],"min":[-0.02104423,0.02,-0.025632841],"type":"VEC3"},{"bufferView":0,"byteOffset":648,"componentType":5126,"count":4,"max":[0.015735717620613027,0.02,0.011866759999999999],"min":[0.010917604000000001,0.005,-0.0035215424124586016],"type":"VEC3"},{"bufferView":0,"byteOffset":696,"componentType":5126,"count":4,"max":[0.015735717620613027,0.02,-0.0035215424124586016],"min":[0.004818113620613026,0.005,-0.0153883024124586],"type":"VEC3"},{"bufferView":0,"byteOffset":744,"componentType":5126,"count":4,"max":[0.004818113620613026,0.02,-0.01186676],"min":[-0.010917604000000001,0.005,-0.0153883024124586],"type":"VEC3"},{"bufferView":0,"byteOffset":792,"componentType":5126,"count":4,"max":[-0.010917604000000001,0.02,0.0035215424124585956],"min":[-0.015735717620613027,0.005,-0.01186676],"type":"VEC3"},{"bufferView":0,"byteOffset":840,"componentType":5126,"count":4,"max":[-0.004818113620613037,0.02,0.0153883024124586],"min":[-0.015735717620613027,0.005,0.0035215424124585956],"type":"VEC3"},{"bufferView":0,"byteOffset":888,"componentType":5126,"count":4,"max":[0.010917604000000001,0.02,0.0153883024124586],"min":[-0.004818113620613037,0.005,0.011866759999999999],"type":"VEC3"},{"bufferView":0,"byteOffset":936,"componentType":5126,"count":6,"max":[0.015735717620613027,0.005,0.0153883024124586],"min":[-0.015735717620613027,0.005,-0.0153883024124586],"type":"VEC3"},{"bufferView":1,"byteOffset":0,"componentType":5126,"count":4,"type":"VEC3"},{"bufferView":1,"byteOffset":48,"componentType":5126,"count":4,"type":"VEC3"},{"bufferView":1,"byteOffset":96,"componentType":5126,"count":4,"type":"VEC3"},{"bufferView":1,"byteOffset":144,"componentType":5126,"count":4,"type":"VEC3"},{"bufferView":1,"byteOffset":192,"componentType":5126,"count":8,"type":"VEC3"},{"bufferView":1,"byteOffset":288,"componentType":5126,"count":4,"type":"VEC3"},{"bufferView":1,"byteOffset":336,"componentType":5126,"count":4,"type":"VEC3"},{"bufferView":1,"byteOffset":384,"componentType":5126,"count":4,"type":"VEC3"},{"bufferView":1,"byteOffset":432,"componentType":5126,"count":4,"type":"VEC3"},{"bufferView":1,"byteOffset":480,"componentType":5126,"count":4,"type":"VEC3"},{"bufferView":1,"byteOffset":528,"componentType":5126,"count":10,"type":"VEC3"},{"bufferView":1,"byteOffset":648,"componentType":5126,"count":4,"type":"VEC3"},{"bufferView":1,"byteOffset":696,"componentType":5126,"count":4,"type":"VEC3"},{"bufferView":1,"byteOffset":744,"componentType":5126,"count":4,"type":"VEC3"},{"bufferView":1,"byteOffset":792,"componentType":5126,"count":4,"type":"VEC3"},{"bufferView":1,"byteOffset":840,"componentType":5126,"count":4,"type":"VEC3"},{"bufferView":1,"byteOffset":888,"componentType":5126,"count":4,"type":"VEC3"},{"bufferView":1,"byteOffset":936,"componentType":5126,"count":6,"type":"VEC3"},{"bufferView":2,"byteOffset":0,"componentType":5123,"count":6,"type":"SCALAR"},{"bufferView":2,"byteOffset":12,"componentType":5123,"count":6,"type":"SCALAR"},{"bufferView":2,"byteOffset":24,"componentType":5123,"count":6,"type":"SCALAR"},{"bufferView":2,"byteOffset":36,"componentType":5123,"count":6,"type":"SCALAR"},{"bufferView":2,"byteOffset":48,"componentType":5123,"count":24,"type":"SCALAR"},{"bufferView":2,"byteOffset":96,"componentType":5123,"count":6,"type":"SCALAR"},{"bufferView":2,"byteOffset":108,"componentType":5123,"count":6,"type":"SCALAR"},{"bufferView":2,"byteOffset":120,"componentType":5123,"count":6,"type":"SCALAR"},{"bufferView":2,"byteOffset":132,"componentType":5123,"count":6,"type":"SCALAR"},{"bufferView":2,"byteOffset":144,"componentType":5123,"count":6,"type":"SCALAR"},{"bufferView":2,"byteOffset":156,"componentType":5123,"count":30,"type":"SCALAR"},{"bufferView":2,"byteOffset":216,"componentType":5123,"count":6,"type":"SCALAR"},{"bufferView":2,"byteOffset":228,"componentType":5123,"count":6,"type":"SCALAR"},{"bufferView":2,"byteOffset":240,"componentType":5123,"count":6,"type":"SCALAR"},{"bufferView":2,"byteOffset":252,"componentType":5123,"count":6,"type":"SCALAR"},{"bufferView":2,"byteOffset":264,"componentType":5123,"count":6,"type":"SCALAR"},{"bufferView":2,"byteOffset":276,"componentType":5123,"count":6,"type":"SCALAR"},{"bufferView":2,"byteOffset":288,"componentType":5123,"count":12,"type":"SCALAR"}],"asset":{"generator":"Open CASCADE Technology 7.7 [dev.opencascade.org]","version":"2.0"},"bufferViews":[{"buffer":0,"byteLength":1008,"byteOffset":0,"byteStride":12,"target":34962},{"buffer":0,"byteLength":1008,"byteOffset":1008,"byteStride":12,"target":34962},{"buffer":0,"byteLength":312,"byteOffset":2016,"target":34963}],"buffers":[{"byteLength":2328,"uri":"model.bin"}],"materials":[{"name":"mat_0","pbrMetallicRoughness":{"baseColorFactor":[0.168269544839859,0.19120186567306519,0.21586069464683534,1.0]},"doubleSided":true}],"meshes":[{"name":"Body","primitives":[{"attributes":{"NORMAL":18,"POSITION":0},"indices":36,"material":0,"mode":4},{"attributes":{"NORMAL":19,"POSITION":1},"indices":37,"material":0,"mode":4},{"attributes":{"NORMAL":20,"POSITION":2},"indices":38,"material":0,"mode":4},{"attributes":{"NORMAL":21,"POSITION":3},"indices":39,"material":0,"mode":4},{"attributes":{"NORMAL":22,"POSITION":4},"indices":40,"material":0,"mode":4},{"attributes":{"NORMAL":23,"POSITION":5},"indices":41,"material":0,"mode":4},{"attributes":{"NORMAL":24,"POSITION":6},"indices":42,"material":0,"mode":4},{"attributes":{"NORMAL":25,"POSITION":7},"indices":43,"material":0,"mode":4},{"attributes":{"NORMAL":26,"POSITION":8},"indices":44,"material":0,"mode":4},{"attributes":{"NORMAL":27,"POSITION":9},"indices":45,"material":0,"mode":4},{"attributes":{"NORMAL":28,"POSITION":10},"indices":46,"material":0,"mode":4},{"attributes":{"NORMAL":29,"POSITION":11},"indices":47,"material":0,"mode":4},{"attributes":{"NORMAL":30,"POSITION":12},"indices":48,"material":0,"mode":4},{"attributes":{"NORMAL":31,"POSITION":13},"indices":49,"material":0,"mode":4},{"attributes":{"NORMAL":32,"POSITION":14},"indices":50,"material":0,"mode":4},{"attributes":{"NORMAL":33,"POSITION":15},"indices":51,"material":0,"mode":4},{"attributes":{"NORMAL":34,"POSITION":16},"indices":52,"material":0,"mode":4},{"attributes":{"NORMAL":35,"POSITION":17},"indices":53,"material":0,"mode":4}]}],"nodes":[{"mesh":0,"name":"Body"}],"scene":0,"scenes":[{"nodes":[0]}]}