{"accessors":[{"bufferView":0,"byteOffset":0,"componentType":5126,"count":93,"max":[0.012500000000000017,5.459898807539299e-18,0.012408860926225688],"min":[-0.0125,-0.051250000000000007,-0.012498999473576876],"type":"VEC3"},{"bufferView":0,"byteOffset":1116,"componentType":5126,"count":216,"max":[0.0125,-0.051250000000000007,0.012408860926225688],"min":[-0.0125,-0.0824088609262257,-0.01874999999999999],"type":"VEC3"},{"bufferView":0,"byteOffset":3708,"componentType":5126,"count":156,"max":[0.02875,1.1e-17,0.02854038013031906],"min":[-0.02875,-1.1e-17,-0.02854038013031905],"type":"VEC3"},{"bufferView":0,"byteOffset":5580,"componentType":5126,"count":67,"max":[0.01,-0.00875944923561896,-0.007500000000000002],"min":[-0.010000000000000016,-0.028748749305647905,-0.025000000000000037],"type":"VEC3"},{"bufferView":0,"byteOffset":6384,"componentType":5126,"count":93,"max":[0.01250000000000003,-0.057591139073774329,-0.018749999999999976],"min":[-0.0125,-0.08249899948307503,-0.05000000000000011],"type":"VEC3"},{"bufferView":0,"byteOffset":7500,"componentType":5126,"count":54,"max":[0.02875,0.005,0.02854038013031906],"min":[-0.02875,0.0,-0.02854038013031905],"type":"VEC3"},{"bufferView":0,"byteOffset":8148,"componentType":5126,"count":54,"max":[0.0024817721852451377,0.005000000000000012,0.025750000000000003],"min":[-0.002481772185245136,0.0,0.02075],"type":"VEC3"},{"bufferView":0,"byteOffset":8796,"componentType":5126,"count":54,"max":[-0.02075,0.005000000000000003,0.0024817721852451355],"min":[-0.025750000000000003,-2.4817721852451365e-18,-0.002481772185245139],"type":"VEC3"},{"bufferView":0,"byteOffset":9444,"componentType":5126,"count":54,"max":[0.025750000000000003,0.005,0.002481772185245136],"min":[0.02075,0.0,-0.0024817721852451377],"type":"VEC3"},{"bufferView":0,"byteOffset":10092,"componentType":5126,"count":54,"max":[0.002481772185245136,0.005,-0.02075],"min":[-0.0024817721852451377,-1.1e-17,-0.025750000000000007],"type":"VEC3"},{"bufferView":0,"byteOffset":10740,"componentType":5126,"count":110,"max":[0.0225,-0.0062500000000000189,-0.024999999999999996],"min":[-0.0225,-0.03125000000000002,-0.025000000000000044],"type":"VEC3"},{"bufferView":0,"byteOffset":12060,"componentType":5126,"count":162,"max":[0.025000000000000006,-0.04500000000000016,-0.04999999999999998],"min":[-0.024999999999999999,-0.09500000000000016,-0.05000000000000016],"type":"VEC3"},{"bufferView":0,"byteOffset":14004,"componentType":5126,"count":67,"max":[0.01,-0.07750000000000003,-0.02750944923450103],"min":[-0.01,-0.10625,-0.04749874931752105],"type":"VEC3"},{"bufferView":0,"byteOffset":14808,"componentType":5126,"count":156,"max":[0.02875,0.005000000000000012,0.02854038013031906],"min":[-0.02875,0.004999999999999988,-0.02854038013031905],"type":"VEC3"},{"bufferView":0,"byteOffset":16680,"componentType":5126,"count":10,"max":[0.005357142857142856,-0.03004384878631566,-0.025000000000000044],"min":[-0.00535714285714286,-0.03125000000000002,-0.028750000000000044],"type":"VEC3"},{"bufferView":0,"byteOffset":16800,"componentType":5126,"count":4,"max":[0.019642857142857147,-0.02326753951452628,-0.025000000000000044],"min":[0.005357142857142856,-0.030043848786315665,-0.028750000000000044],"type":"VEC3"},{"bufferView":0,"byteOffset":16848,"componentType":5126,"count":4,"max":[-0.00535714285714286,-0.023267539514526277,-0.025000000000000044],"min":[-0.019642857142857147,-0.03004384878631566,-0.028750000000000044],"type":"VEC3"},{"bufferView":0,"byteOffset":16896,"componentType":5126,"count":22,"max":[0.0225,-0.014232460485473765,-0.025000000000000044],"min":[0.019642857142857144,-0.02326753951452628,-0.028750000000000044],"type":"VEC3"},{"bufferView":0,"byteOffset":17160,"componentType":5126,"count":22,"max":[-0.019642857142857144,-0.014232460485473765,-0.025000000000000044],"min":[-0.0225,-0.023267539514526277,-0.028750000000000044],"type":"VEC3"},{"bufferView":0,"byteOffset":17424,"componentType":5126,"count":4,"max":[0.019642857142857144,-0.0074561512136843799,-0.025000000000000044],"min":[0.005357142857142858,-0.014232460485473766,-0.028750000000000044],"type":"VEC3"},{"bufferView":0,"byteOffset":17472,"componentType":5126,"count":4,"max":[-0.005357142857142856,-0.007456151213684379,-0.025000000000000044],"min":[-0.019642857142857144,-0.014232460485473766,-0.028750000000000044],"type":"VEC3"},{"bufferView":0,"byteOffset":17520,"componentType":5126,"count":10,"max":[0.005357142857142858,-0.0062500000000000189,-0.025000000000000044],"min":[-0.005357142857142856,-0.007456151213684381,-0.028750000000000044],"type":"VEC3"},{"bufferView":0,"byteOffset":17640,"componentType":5126,"count":54,"max":[-0.015,-0.016268227814754876,-0.02500000000000004],"min":[-0.02,-0.021231772185245146,-0.028750000000000058],"type":"VEC3"},{"bufferView":0,"byteOffset":18288,"componentType":5126,"count":54,"max":[0.02,-0.016268227814754876,-0.02500000000000004],"min":[0.015,-0.021231772185245146,-0.028750000000000058],"type":"VEC3"},{"bufferView":0,"byteOffset":18936,"componentType":5126,"count":4,"max":[0.025000000000000006,-0.050000000000000158,-0.05000000000000014],"min":[0.025000000000000006,-0.09000000000000017,-0.055000000000000149],"type":"VEC3"},{"bufferView":0,"byteOffset":18984,"componentType":5126,"count":16,"max":[0.025000000000000006,-0.04500000000000016,-0.05000000000000014],"min":[0.020000000000000005,-0.050000000000000158,-0.055000000000000149],"type":"VEC3"},{"bufferView":0,"byteOffset":19176,"componentType":5126,"count":16,"max":[0.025000000000000006,-0.09000000000000017,-0.05000000000000014],"min":[0.020000000000000005,-0.09500000000000016,-0.055000000000000149],"type":"VEC3"},{"bufferView":0,"byteOffset":19368,"componentType":5126,"count":4,"max":[0.020000000000000005,-0.04500000000000016,-0.05000000000000014],"min":[-0.019999999999999998,-0.04500000000000016,-0.055000000000000149],"type":"VEC3"},{"bufferView":0,"byteOffset":19416,"componentType":5126,"count":4,"max":[0.020000000000000005,-0.09500000000000016,-0.05000000000000014],"min":[-0.019999999999999998,-0.09500000000000016,-0.055000000000000149],"type":"VEC3"},{"bufferView":0,"byteOffset":19464,"componentType":5126,"count":16,"max":[-0.019999999999999998,-0.04500000000000016,-0.05000000000000014],"min":[-0.024999999999999999,-0.050000000000000158,-0.055000000000000149],"type":"VEC3"},{"bufferView":0,"byteOffset":19656,"componentType":5126,"count":16,"max":[-0.019999999999999998,-0.09000000000000015,-0.05000000000000014],"min":[-0.024999999999999999,-0.09500000000000016,-0.055000000000000149],"type":"VEC3"},{"bufferView":0,"byteOffset":19848,"componentType":5126,"count":4,"max":[-0.024999999999999999,-0.050000000000000158,-0.05000000000000014],"min":[-0.024999999999999999,-0.09000000000000015,-0.055000000000000149],"type":"VEC3"},{"bufferView":0,"byteOffset":19896,"componentType":5126,"count":54,"max":[-0.0175,-0.047518227814754867,-0.050000000000000158],"min":[-0.0225,-0.05248177218524515,-0.055000000000000177],"type":"VEC3"},{"bufferView":0,"byteOffset":20544,"componentType":5126,"count":54,"max":[0.0225,-0.047518227814754867,-0.050000000000000158],"min":[0.0175,-0.05248177218524515,-0.055000000000000177],"type":"VEC3"},{"bufferView":0,"byteOffset":21192,"componentType":5126,"count":54,"max":[-0.0175,-0.08751822781475487,-0.05000000000000015],"min":[-0.0225,-0.09248177218524516,-0.055000000000000177],"type":"VEC3"},{"bufferView":0,"byteOffset":21840,"componentType":5126,"count":54,"max":[0.0225,-0.08751822781475487,-0.05000000000000015],"min":[0.0175,-0.09248177218524516,-0.055000000000000177],"type":"VEC3"},{"bufferView":0,"byteOffset":22488,"componentType":5126,"count":52,"max":[0.01,-0.10625,-0.027572911259019438],"min":[-0.01,-0.10625,-0.047427088740980529],"type":"VEC3"},{"bufferView":0,"byteOffset":23112,"componentType":5126,"count":95,"max":[0.010000000000000008,0.0050000000000000048,0.00992708874098056],"min":[-0.010000000000000008,-0.05125000000000004,-0.009995737301372456],"type":"VEC3"},{"bufferView":0,"byteOffset":24252,"componentType":5126,"count":110,"max":[0.0225,-0.00625000000000002,-0.028750000000000044],"min":[-0.0225,-0.03125000000000002,-0.028750000000000058],"type":"VEC3"},{"bufferView":0,"byteOffset":25572,"componentType":5126,"count":162,"max":[0.025000000000000006,-0.04500000000000016,-0.055000000000000017],"min":[-0.024999999999999999,-0.09500000000000016,-0.055000000000000177],"type":"VEC3"},{"bufferView":0,"byteOffset":27516,"componentType":5126,"count":69,"max":[0.0075,-0.07661437827766152,-0.030006058538691223],"min":[-0.0075,-0.10625,-0.04499431547513063],"type":"VEC3"},{"bufferView":0,"byteOffset":28344,"componentType":5126,"count":216,"max":[0.010000000000000008,-0.05125000000000004,0.00992708874098056],"min":[-0.010000000000000008,-0.07992708874098054,-0.018749999999999976],"type":"VEC3"},{"bufferView":0,"byteOffset":30936,"componentType":5126,"count":69,"max":[0.0075,-0.011256058539591586,-0.006614378277661483],"min":[-0.007500000000000009,-0.026244315458071815,-0.028750000000000055],"type":"VEC3"},{"bufferView":0,"byteOffset":31764,"componentType":5126,"count":95,"max":[0.01,-0.06007291125901946,-0.01874999999999996],"min":[-0.01,-0.07999573731416243,-0.055000000000000017],"type":"VEC3"},{"bufferView":1,"byteOffset":0,"componentType":5126,"count":93,"type":"VEC3"},{"bufferView":1,"byteOffset":1116,"componentType":5126,"count":216,"type":"VEC3"},{"bufferView":1,"byteOffset":3708,"componentType":5126,"count":156,"type":"VEC3"},{"bufferView":1,"byteOffset":5580,"componentType":5126,"count":67,"type":"VEC3"},{"bufferView":1,"byteOffset":6384,"componentType":5126,"count":93,"type":"VEC3"},{"bufferView":1,"byteOffset":7500,"componentType":5126,"count":54,"type":"VEC3"},{"bufferView":1,"byteOffset":8148,"componentType":5126,"count":54,"type":"VEC3"},{"bufferView":1,"byteOffset":8796,"componentType":5126,"count":54,"type":"VEC3"},{"bufferView":1,"byteOffset":9444,"componentType":5126,"count":54,"type":"VEC3"},{"bufferView":1,"byteOffset":10092,"componentType":5126,"count":54,"type":"VEC3"},{"bufferView":1,"byteOffset":10740,"componentType":5126,"count":110,"type":"VEC3"},{"bufferView":1,"byteOffset":12060,"componentType":5126,"count":162,"type":"VEC3"},{"bufferView":1,"byteOffset":14004,"componentType":5126,"count":67,"type":"VEC3"},{"bufferView":1,"byteOffset":14808,"componentType":5126,"count":156,"type":"VEC3"},{"bufferView":1,"byteOffset":16680,"componentType":5126,"count":10,"type":"VEC3"},{"bufferView":1,"byteOffset":16800,"componentType":5126,"count":4,"type":"VEC3"},{"bufferView":1,"byteOffset":16848,"componentType":5126,"count":4,"type":"VEC3"},{"bufferView":1,"byteOffset":16896,"componentType":5126,"count":22,"type":"VEC3"},{"bufferView":1,"byteOffset":17160,"componentType":5126,"count":22,"type":"VEC3"},{"bufferView":1,"byteOffset":17424,"componentType":5126,"count":4,"type":"VEC3"},{"bufferView":1,"byteOffset":17472,"componentType":5126,"count":4,"type":"VEC3"},{"bufferView":1,"byteOffset":17520,"componentType":5126,"count":10,"type":"VEC3"},{"bufferView":1,"byteOffset":17640,"componentType":5126,"count":54,"type":"VEC3"},{"bufferView":1,"byteOffset":18288,"componentType":5126,"count":54,"type":"VEC3"},{"bufferView":1,"byteOffset":18936,"componentType":5126,"count":4,"type":"VEC3"},{"bufferView":1,"byteOffset":18984,"componentType":5126,"count":16,"type":"VEC3"},{"bufferView":1,"byteOffset":19176,"componentType":5126,"count":16,"type":"VEC3"},{"bufferView":1,"byteOffset":19368,"componentType":5126,"count":4,"type":"VEC3"},{"bufferView":1,"byteOffset":19416,"componentType":5126,"count":4,"type":"VEC3"},{"bufferView":1,"byteOffset":19464,"componentType":5126,"count":16,"type":"VEC3"},{"bufferView":1,"byteOffset":19656,"componentType":5126,"count":16,"type":"VEC3"},{"bufferView":1,"byteOffset":19848,"componentType":5126,"count":4,"type":"VEC3"},{"bufferView":1,"byteOffset":19896,"componentType":5126,"count":54,"type":"VEC3"},{"bufferView":1,"byteOffset":20544,"componentType":5126,"count":54,"type":"VEC3"},{"bufferView":1,"byteOffset":21192,"componentType":5126,"count":54,"type":"VEC3"},{"bufferView":1,"byteOffset":21840,"componentType":5126,"count":54,"type":"VEC3"},{"bufferView":1,"byteOffset":22488,"componentType":5126,"count":52,"type":"VEC3"},{"bufferView":1,"byteOffset":23112,"componentType":5126,"count":95,"type":"VEC3"},{"bufferView":1,"byteOffset":24252,"componentType":5126,"count":110,"type":"VEC3"},{"bufferView":1,"byteOffset":25572,"componentType":5126,"count":162,"type":"VEC3"},{"bufferView":1,"byteOffset":27516,"componentType":5126,"count":69,"type":"VEC3"},{"bufferView":1,"byteOffset":28344,"componentType":5126,"count":216,"type":"VEC3"},{"bufferView":1,"byteOffset":30936,"componentType":5126,"count":69,"type":"VEC3"},{"bufferView":1,"byteOffset":31764,"componentType":5126,"count":95,"type":"VEC3"},{"bufferView":2,"byteOffset":0,"componentType":5123,"count":279,"type":"SCALAR"},{"bufferView":2,"byteOffset":560,"componentType":5123,"count":1092,"type":"SCALAR"},{"bufferView":2,"byteOffset":2744,"componentType":5123,"count":492,"type":"SCALAR"},{"bufferView":2,"byteOffset":3728,"componentType":5123,"count":195,"type":"SCALAR"},{"bufferView":2,"byteOffset":4120,"componentType":5123,"count":279,"type":"SCALAR"},{"bufferView":2,"byteOffset":4680,"componentType":5123,"count":156,"type":"SCALAR"},{"bufferView":2,"byteOffset":4992,"componentType":5123,"count":156,"type":"SCALAR"},{"bufferView":2,"byteOffset":5304,"componentType":5123,"count":156,"type":"SCALAR"},{"bufferView":2,"byteOffset":5616,"componentType":5123,"count":156,"type":"SCALAR"},{"bufferView":2,"byteOffset":5928,"componentType":5123,"count":156,"type":"SCALAR"},{"bufferView":2,"byteOffset":6240,"componentType":5123,"count":342,"type":"SCALAR"},{"bufferView":2,"byteOffset":6924,"componentType":5123,"count":510,"type":"SCALAR"},{"bufferView":2,"byteOffset":7944,"componentType":5123,"count":195,"type":"SCALAR"},{"bufferView":2,"byteOffset":8336,"componentType":5123,"count":492,"type":"SCALAR"},{"bufferView":2,"byteOffset":9320,"componentType":5123,"count":24,"type":"SCALAR"},{"bufferView":2,"byteOffset":9368,"componentType":5123,"count":6,"type":"SCALAR"},{"bufferView":2,"byteOffset":9380,"componentType":5123,"count":6,"type":"SCALAR"},{"bufferView":2,"byteOffset":9392,"componentType":5123,"count":60,"type":"SCALAR"},{"bufferView":2,"byteOffset":9512,"componentType":5123,"count":60,"type":"SCALAR"},{"bufferView":2,"byteOffset":9632,"componentType":5123,"count":6,"type":"SCALAR"},{"bufferView":2,"byteOffset":9644,"componentType":5123,"count":6,"type":"SCALAR"},{"bufferView":2,"byteOffset":9656,"componentType":5123,"count":24,"type":"SCALAR"},{"bufferView":2,"byteOffset":9704,"componentType":5123,"count":156,"type":"SCALAR"},{"bufferView":2,"byteOffset":10016,"componentType":5123,"count":156,"type":"SCALAR"},{"bufferView":2,"byteOffset":10328,"componentType":5123,"count":6,"type":"SCALAR"},{"bufferView":2,"byteOffset":10340,"componentType":5123,"count":42,"type":"SCALAR"},{"bufferView":2,"byteOffset":10424,"componentType":5123,"count":42,"type":"SCALAR"},{"bufferView":2,"byteOffset":10508,"componentType":5123,"count":6,"type":"SCALAR"},{"bufferView":2,"byteOffset":10520,"componentType":5123,"count":6,"type":"SCALAR"},{"bufferView":2,"byteOffset":10532,"componentType":5123,"count":42,"type":"SCALAR"},{"bufferView":2,"byteOffset":10616,"componentType":5123,"count":42,"type":"SCALAR"},{"bufferView":2,"byteOffset":10700,"componentType":5123,"count":6,"type":"SCALAR"},{"bufferView":2,"byteOffset":10712,"componentType":5123,"count":156,"type":"SCALAR"},{"bufferView":2,"byteOffset":11024,"componentType":5123,"count":156,"type":"SCALAR"},{"bufferView":2,"byteOffset":11336,"componentType":5123,"count":156,"type":"SCALAR"},{"bufferView":2,"byteOffset":11648,"componentType":5123,"count":156,"type":"SCALAR"},{"bufferView":2,"byteOffset":11960,"componentType":5123,"count":156,"type":"SCALAR"},{"bufferView":2,"byteOffset":12272,"componentType":5123,"count":285,"type":"SCALAR"},{"bufferView":2,"byteOffset":12844,"componentType":5123,"count":342,"type":"SCALAR"},{"bufferView":2,"byteOffset":13528,"componentType":5123,"count":510,"type":"SCALAR"},{"bufferView":2,"byteOffset":14548,"componentType":5123,"count":201,"type":"SCALAR"},{"bufferView":2,"byteOffset":14952,"componentType":5123,"count":1092,"type":"SCALAR"},{"bufferView":2,"byteOffset":17136,"componentType":5123,"count":201,"type":"SCALAR"},{"bufferView":2,"byteOffset":17540,"componentType":5123,"count":285,"type":"SCALAR"}],"asset":{"generator":"Open CASCADE Technology 7.7 [dev.opencascade.org]","version":"2.0"},"bufferViews":[{"buffer":0,"byteLength":32904,"byteOffset":0,"byteStride":12,"target":34962},{"buffer":0,"byteLength":32904,"byteOffset":32904,"byteStride":12,"target":34962},{"buffer":0,"byteLength":18112,"byteOffset":65808,"target":34963}],"buffers":[{"byteLength":83920,"uri":"pipe_Demo.bin"}],"materials":[{"name":"mat_0","pbrMetallicRoughness":{"baseColorFactor":[0.16826939582824708,0.19120168685913087,0.2158605307340622,1.0]},"doubleSided":true}],"meshes":[{"name":"Pocket004","primitives":[{"attributes":{"NORMAL":44,"POSITION":0},"indices":88,"material":0,"mode":4},{"attributes":{"NORMAL":45,"POSITION":1},"indices":89,"material":0,"mode":4},{"attributes":{"NORMAL":46,"POSITION":2},"indices":90,"material":0,"mode":4},{"attributes":{"NORMAL":47,"POSITION":3},"indices":91,"material":0,"mode":4},{"attributes":{"NORMAL":48,"POSITION":4},"indices":92,"material":0,"mode":4},{"attributes":{"NORMAL":49,"POSITION":5},"indices":93,"material":0,"mode":4},{"attributes":{"NORMAL":50,"POSITION":6},"indices":94,"material":0,"mode":4},{"attributes":{"NORMAL":51,"POSITION":7},"indices":95,"material":0,"mode":4},{"attributes":{"NORMAL":52,"POSITION":8},"indices":96,"material":0,"mode":4},{"attributes":{"NORMAL":53,"POSITION":9},"indices":97,"material":0,"mode":4},{"attributes":{"NORMAL":54,"POSITION":10},"indices":98,"material":0,"mode":4},{"attributes":{"NORMAL":55,"POSITION":11},"indices":99,"material":0,"mode":4},{"attributes":{"NORMAL":56,"POSITION":12},"indices":100,"material":0,"mode":4},{"attributes":{"NORMAL":57,"POSITION":13},"indices":101,"material":0,"mode":4},{"attributes":{"NORMAL":58,"POSITION":14},"indices":102,"material":0,"mode":4},{"attributes":{"NORMAL":59,"POSITION":15},"indices":103,"material":0,"mode":4},{"attributes":{"NORMAL":60,"POSITION":16},"indices":104,"material":0,"mode":4},{"attributes":{"NORMAL":61,"POSITION":17},"indices":105,"material":0,"mode":4},{"attributes":{"NORMAL":62,"POSITION":18},"indices":106,"material":0,"mode":4},{"attributes":{"NORMAL":63,"POSITION":19},"indices":107,"material":0,"mode":4},{"attributes":{"NORMAL":64,"POSITION":20},"indices":108,"material":0,"mode":4},{"attributes":{"NORMAL":65,"POSITION":21},"indices":109,"material":0,"mode":4},{"attributes":{"NORMAL":66,"POSITION":22},"indices":110,"material":0,"mode":4},{"attributes":{"NORMAL":67,"POSITION":23},"indices":111,"material":0,"mode":4},{"attributes":{"NORMAL":68,"POSITION":24},"indices":112,"material":0,"mode":4},{"attributes":{"NORMAL":69,"POSITION":25},"indices":113,"material":0,"mode":4},{"attributes":{"NORMAL":70,"POSITION":26},"indices":114,"material":0,"mode":4},{"attributes":{"NORMAL":71,"POSITION":27},"indices":115,"material":0,"mode":4},{"attributes":{"NORMAL":72,"POSITION":28},"indices":116,"material":0,"mode":4},{"attributes":{"NORMAL":73,"POSITION":29},"indices":117,"material":0,"mode":4},{"attributes":{"NORMAL":74,"POSITION":30},"indices":118,"material":0,"mode":4},{"attributes":{"NORMAL":75,"POSITION":31},"indices":119,"material":0,"mode":4},{"attributes":{"NORMAL":76,"POSITION":32},"indices":120,"material":0,"mode":4},{"attributes":{"NORMAL":77,"POSITION":33},"indices":121,"material":0,"mode":4},{"attributes":{"NORMAL":78,"POSITION":34},"indices":122,"material":0,"mode":4},{"attributes":{"NORMAL":79,"POSITION":35},"indices":123,"material":0,"mode":4},{"attributes":{"NORMAL":80,"POSITION":36},"indices":124,"material":0,"mode":4},{"attributes":{"NORMAL":81,"POSITION":37},"indices":125,"material":0,"mode":4},{"attributes":{"NORMAL":82,"POSITION":38},"indices":126,"material":0,"mode":4},{"attributes":{"NORMAL":83,"POSITION":39},"indices":127,"material":0,"mode":4},{"attributes":{"NORMAL":84,"POSITION":40},"indices":128,"material":0,"mode":4},{"attributes":{"NORMAL":85,"POSITION":41},"indices":129,"material":0,"mode":4},{"attributes":{"NORMAL":86,"POSITION":42},"indices":130,"material":0,"mode":4},{"attributes":{"NORMAL":87,"POSITION":43},"indices":131,"material":0,"mode":4}]}],"nodes":[{"mesh":0,"name":"Pocket004"}],"scene":0,"scenes":[{"nodes":[0]}]}