{"accessors":[{"bufferView":0,"byteOffset":0,"componentType":5126,"count":39,"max":[0.012500000000000017,0.012500000009896349,0.0],"min":[8.806017497850278e-18,0.0,-0.051250000000000007],"type":"VEC3"},{"bufferView":0,"byteOffset":468,"componentType":5126,"count":84,"max":[0.02875,0.02875,6.325e-18],"min":[-6e-18,-0.02875,-6.325e-18],"type":"VEC3"},{"bufferView":0,"byteOffset":1476,"componentType":5126,"count":10,"max":[1.186763449571866e-17,0.028750000000000058,0.0050000000000000048],"min":[7.561268435221578e-18,0.010000000000000002,-0.011250000000000003],"type":"VEC3"},{"bufferView":0,"byteOffset":1596,"componentType":5126,"count":37,"max":[0.009999802359110688,0.025,-0.008749999996407276],"min":[8.269460797427576e-18,0.007500263510450372,-0.02875000000368722],"type":"VEC3"},{"bufferView":0,"byteOffset":2040,"componentType":5126,"count":26,"max":[1.3627987627273797e-17,0.05500000000000015,-0.026250000000000004],"min":[0.0,0.010000000000000008,-0.06000000000000003],"type":"VEC3"},{"bufferView":0,"byteOffset":2352,"componentType":5126,"count":64,"max":[0.0125,0.01875,-0.051250000000000007],"min":[8.806017497850278e-18,0.0,-0.07],"type":"VEC3"},{"bufferView":0,"byteOffset":3120,"componentType":5126,"count":16,"max":[0.012500000000000017,0.0,2.75e-18],"min":[1.7418749618844446e-17,-0.0125,-0.051250000000000007],"type":"VEC3"},{"bufferView":0,"byteOffset":3312,"componentType":5126,"count":16,"max":[0.02875,0.02875,0.005000000000000006],"min":[8.14421216536897e-18,0.0,0.0],"type":"VEC3"},{"bufferView":0,"byteOffset":3504,"componentType":5126,"count":4,"max":[8.14421216536897e-18,0.02875,0.005000000000000006],"min":[3e-18,0.025750000000000003,-5e-18],"type":"VEC3"},{"bufferView":0,"byteOffset":3552,"componentType":5126,"count":28,"max":[0.0024817721852451359,0.025750000000000007,0.005000000000000006],"min":[3e-18,0.02075,-5e-18],"type":"VEC3"},{"bufferView":0,"byteOffset":3888,"componentType":5126,"count":25,"max":[1.9908247744101845e-17,0.03,0.005000000000000002],"min":[5.2836104987101669e-18,-0.02075,-0.10624999999999999],"type":"VEC3"},{"bufferView":0,"byteOffset":4188,"componentType":5126,"count":28,"max":[0.0024817721852451377,-0.02075,0.005000000000000007],"min":[-6e-18,-0.025750000000000003,-5.6940179995843288e-18],"type":"VEC3"},{"bufferView":0,"byteOffset":4524,"componentType":5126,"count":4,"max":[2.025384024505564e-17,-0.02575,0.005000000000000007],"min":[-6e-18,-0.02875,-6.325e-18],"type":"VEC3"},{"bufferView":0,"byteOffset":4572,"componentType":5126,"count":16,"max":[0.02875,1e-18,0.005],"min":[2.025384024505564e-17,-0.02875,-6.325e-18],"type":"VEC3"},{"bufferView":0,"byteOffset":4764,"componentType":5126,"count":54,"max":[0.025750000000000003,0.002481772185245136,0.005000000000000001],"min":[0.02075,-0.002481772185245136,-5.459898807539299e-19],"type":"VEC3"},{"bufferView":0,"byteOffset":5412,"componentType":5126,"count":59,"max":[0.0225,0.02500000000000005,-0.006250000000000014],"min":[7.561268435221578e-18,0.025,-0.031250000000000017],"type":"VEC3"},{"bufferView":0,"byteOffset":6120,"componentType":5126,"count":8,"max":[0.005357142857142858,0.028750000000000044,-0.006250000000000014],"min":[7.561268435221578e-18,0.025000000000000044,-0.007456151213684375],"type":"VEC3"},{"bufferView":0,"byteOffset":6216,"componentType":5126,"count":59,"max":[0.0225,0.02875000000000006,-0.006250000000000014],"min":[7.561268435221578e-18,0.028750000000000044,-0.031250000000000017],"type":"VEC3"},{"bufferView":0,"byteOffset":6924,"componentType":5126,"count":34,"max":[0.007496037271416454,0.028750000000000058,-0.01124999999726822],"min":[7.867430135008418e-18,0.006618868868156341,-0.026250000002731819],"type":"VEC3"},{"bufferView":0,"byteOffset":7332,"componentType":5126,"count":36,"max":[0.010000000000000008,0.010000000006193883,0.005],"min":[7.044813998280229e-18,0.0,-0.05125000000000004],"type":"VEC3"},{"bufferView":0,"byteOffset":7764,"componentType":5126,"count":84,"max":[0.02875,0.02875,0.005000000000000007],"min":[-6e-18,-0.02875,0.004999999999999993],"type":"VEC3"},{"bufferView":0,"byteOffset":8772,"componentType":5126,"count":16,"max":[0.01250000000000003,0.05000000000000012,-0.05749999999999999],"min":[3.540961811029987e-18,0.018749999999999997,-0.07000000000000016],"type":"VEC3"},{"bufferView":0,"byteOffset":8964,"componentType":5126,"count":85,"max":[0.025000000000000006,0.050000000000000179,-0.04500000000000014],"min":[-2.296212748401287e-18,0.049999999999999999,-0.09500000000000014],"type":"VEC3"},{"bufferView":0,"byteOffset":9984,"componentType":5126,"count":4,"max":[0.020000000000000005,0.05500000000000015,-0.04500000000000014],"min":[0.0,0.05000000000000015,-0.045000000000000147],"type":"VEC3"},{"bufferView":0,"byteOffset":10032,"componentType":5126,"count":84,"max":[0.025000000000000006,0.055000000000000198,-0.04500000000000014],"min":[0.0,0.05500000000000003,-0.09500000000000014],"type":"VEC3"},{"bufferView":0,"byteOffset":11040,"componentType":5126,"count":50,"max":[0.01,0.05500000000000003,-0.06],"min":[1.6081226496766364e-18,0.01874999999999998,-0.08000000000615665],"type":"VEC3"},{"bufferView":0,"byteOffset":11640,"componentType":5126,"count":64,"max":[0.010000000000000008,0.018749999999999997,-0.05125000000000004],"min":[7.044813998280229e-18,0.0,-0.07],"type":"VEC3"},{"bufferView":0,"byteOffset":12408,"componentType":5126,"count":8,"max":[0.005357142857142856,0.02875000000000005,-0.030043848786315654],"min":[1.3398442994652853e-17,0.02500000000000005,-0.031250000000000017],"type":"VEC3"},{"bufferView":0,"byteOffset":12504,"componentType":5126,"count":89,"max":[0.0125,0.018749999999999997,-0.051250000000000007],"min":[8.040613248383184e-18,-0.0125,-0.0825],"type":"VEC3"},{"bufferView":0,"byteOffset":13572,"componentType":5126,"count":16,"max":[0.010000000000000008,1e-18,0.005000000000000002],"min":[1.5926598195281474e-17,-0.010000000000000008,-0.05125000000000004],"type":"VEC3"},{"bufferView":0,"byteOffset":13764,"componentType":5126,"count":64,"max":[0.010000000000000008,0.018749999999999997,-0.05125000000000004],"min":[6.432490598706546e-18,-0.010000000000000008,-0.08],"type":"VEC3"},{"bufferView":0,"byteOffset":14532,"componentType":5126,"count":20,"max":[0.0075,0.037500000000000009,-0.07661437827766149],"min":[5.2836104987101669e-18,0.029999999997318288,-0.10624999999999999],"type":"VEC3"},{"bufferView":0,"byteOffset":14772,"componentType":5126,"count":30,"max":[0.01,0.0475,-0.10624999999999999],"min":[2.8327694488239897e-18,0.0275,-0.10624999999999999],"type":"VEC3"},{"bufferView":0,"byteOffset":15132,"componentType":5126,"count":19,"max":[0.01,0.037500000000000009,-0.07750000000000002],"min":[7.044813998280222e-18,0.027499999996407306,-0.10624999999999999],"type":"VEC3"},{"bufferView":0,"byteOffset":15360,"componentType":5126,"count":37,"max":[0.01250000000000003,0.05000000000000012,-0.07],"min":[-2.296212748401287e-18,0.018749999999999994,-0.08250000000989635],"type":"VEC3"},{"bufferView":0,"byteOffset":15804,"componentType":5126,"count":4,"max":[0.019642857142857147,0.02875000000000005,-0.02326753951452627],"min":[0.005357142857142856,0.025000000000000048,-0.030043848786315658],"type":"VEC3"},{"bufferView":0,"byteOffset":15852,"componentType":5126,"count":22,"max":[0.0225,0.028750000000000048,-0.014232460485473758],"min":[0.019642857142857144,0.025000000000000048,-0.023267539514526274],"type":"VEC3"},{"bufferView":0,"byteOffset":16116,"componentType":5126,"count":4,"max":[0.019642857142857144,0.028750000000000048,-0.007456151213684375],"min":[0.005357142857142858,0.025000000000000044,-0.014232460485473759],"type":"VEC3"},{"bufferView":0,"byteOffset":16164,"componentType":5126,"count":54,"max":[0.02,0.02875000000000006,-0.016268227814754869],"min":[0.015,0.025000000000000044,-0.021231772185245139],"type":"VEC3"},{"bufferView":0,"byteOffset":16812,"componentType":5126,"count":16,"max":[0.025000000000000006,0.05500000000000016,-0.04500000000000014],"min":[0.020000000000000005,0.05000000000000015,-0.050000000000000138],"type":"VEC3"},{"bufferView":0,"byteOffset":17004,"componentType":5126,"count":8,"max":[4.440892098500626e-18,0.05500000000000017,-0.08000000000000003],"min":[-2.296212748401287e-18,0.045,-0.10624999999999999],"type":"VEC3"},{"bufferView":0,"byteOffset":17100,"componentType":5126,"count":4,"max":[0.020000000000000005,0.05500000000000017,-0.09500000000000014],"min":[0.0,0.05000000000000016,-0.09500000000000014],"type":"VEC3"},{"bufferView":0,"byteOffset":17148,"componentType":5126,"count":16,"max":[0.025000000000000006,0.05500000000000017,-0.09000000000000015],"min":[0.020000000000000005,0.05000000000000016,-0.09500000000000014],"type":"VEC3"},{"bufferView":0,"byteOffset":17340,"componentType":5126,"count":4,"max":[0.025000000000000006,0.05500000000000017,-0.050000000000000138],"min":[0.025000000000000006,0.050000000000000158,-0.09000000000000015],"type":"VEC3"},{"bufferView":0,"byteOffset":17388,"componentType":5126,"count":54,"max":[0.0225,0.05500000000000019,-0.04751822781475485],"min":[0.0175,0.05000000000000017,-0.052481772185245138],"type":"VEC3"},{"bufferView":0,"byteOffset":18036,"componentType":5126,"count":54,"max":[0.0225,0.055000000000000198,-0.08751822781475485],"min":[0.0175,0.05000000000000017,-0.09248177218524514],"type":"VEC3"},{"bufferView":0,"byteOffset":18684,"componentType":5126,"count":18,"max":[0.0075,0.04500000000268166,-0.07661437827766149],"min":[3.7470027081099039e-18,0.0375,-0.10624999999999999],"type":"VEC3"},{"bufferView":0,"byteOffset":18900,"componentType":5126,"count":19,"max":[0.01,0.047500000003687207,-0.07750000000000002],"min":[2.8327694488239897e-18,0.0375,-0.10624999999999999],"type":"VEC3"},{"bufferView":1,"byteOffset":0,"componentType":5126,"count":39,"type":"VEC3"},{"bufferView":1,"byteOffset":468,"componentType":5126,"count":84,"type":"VEC3"},{"bufferView":1,"byteOffset":1476,"componentType":5126,"count":10,"type":"VEC3"},{"bufferView":1,"byteOffset":1596,"componentType":5126,"count":37,"type":"VEC3"},{"bufferView":1,"byteOffset":2040,"componentType":5126,"count":26,"type":"VEC3"},{"bufferView":1,"byteOffset":2352,"componentType":5126,"count":64,"type":"VEC3"},{"bufferView":1,"byteOffset":3120,"componentType":5126,"count":16,"type":"VEC3"},{"bufferView":1,"byteOffset":3312,"componentType":5126,"count":16,"type":"VEC3"},{"bufferView":1,"byteOffset":3504,"componentType":5126,"count":4,"type":"VEC3"},{"bufferView":1,"byteOffset":3552,"componentType":5126,"count":28,"type":"VEC3"},{"bufferView":1,"byteOffset":3888,"componentType":5126,"count":25,"type":"VEC3"},{"bufferView":1,"byteOffset":4188,"componentType":5126,"count":28,"type":"VEC3"},{"bufferView":1,"byteOffset":4524,"componentType":5126,"count":4,"type":"VEC3"},{"bufferView":1,"byteOffset":4572,"componentType":5126,"count":16,"type":"VEC3"},{"bufferView":1,"byteOffset":4764,"componentType":5126,"count":54,"type":"VEC3"},{"bufferView":1,"byteOffset":5412,"componentType":5126,"count":59,"type":"VEC3"},{"bufferView":1,"byteOffset":6120,"componentType":5126,"count":8,"type":"VEC3"},{"bufferView":1,"byteOffset":6216,"componentType":5126,"count":59,"type":"VEC3"},{"bufferView":1,"byteOffset":6924,"componentType":5126,"count":34,"type":"VEC3"},{"bufferView":1,"byteOffset":7332,"componentType":5126,"count":36,"type":"VEC3"},{"bufferView":1,"byteOffset":7764,"componentType":5126,"count":84,"type":"VEC3"},{"bufferView":1,"byteOffset":8772,"componentType":5126,"count":16,"type":"VEC3"},{"bufferView":1,"byteOffset":8964,"componentType":5126,"count":85,"type":"VEC3"},{"bufferView":1,"byteOffset":9984,"componentType":5126,"count":4,"type":"VEC3"},{"bufferView":1,"byteOffset":10032,"componentType":5126,"count":84,"type":"VEC3"},{"bufferView":1,"byteOffset":11040,"componentType":5126,"count":50,"type":"VEC3"},{"bufferView":1,"byteOffset":11640,"componentType":5126,"count":64,"type":"VEC3"},{"bufferView":1,"byteOffset":12408,"componentType":5126,"count":8,"type":"VEC3"},{"bufferView":1,"byteOffset":12504,"componentType":5126,"count":89,"type":"VEC3"},{"bufferView":1,"byteOffset":13572,"componentType":5126,"count":16,"type":"VEC3"},{"bufferView":1,"byteOffset":13764,"componentType":5126,"count":64,"type":"VEC3"},{"bufferView":1,"byteOffset":14532,"componentType":5126,"count":20,"type":"VEC3"},{"bufferView":1,"byteOffset":14772,"componentType":5126,"count":30,"type":"VEC3"},{"bufferView":1,"byteOffset":15132,"componentType":5126,"count":19,"type":"VEC3"},{"bufferView":1,"byteOffset":15360,"componentType":5126,"count":37,"type":"VEC3"},{"bufferView":1,"byteOffset":15804,"componentType":5126,"count":4,"type":"VEC3"},{"bufferView":1,"byteOffset":15852,"componentType":5126,"count":22,"type":"VEC3"},{"bufferView":1,"byteOffset":16116,"componentType":5126,"count":4,"type":"VEC3"},{"bufferView":1,"byteOffset":16164,"componentType":5126,"count":54,"type":"VEC3"},{"bufferView":1,"byteOffset":16812,"componentType":5126,"count":16,"type":"VEC3"},{"bufferView":1,"byteOffset":17004,"componentType":5126,"count":8,"type":"VEC3"},{"bufferView":1,"byteOffset":17100,"componentType":5126,"count":4,"type":"VEC3"},{"bufferView":1,"byteOffset":17148,"componentType":5126,"count":16,"type":"VEC3"},{"bufferView":1,"byteOffset":17340,"componentType":5126,"count":4,"type":"VEC3"},{"bufferView":1,"byteOffset":17388,"componentType":5126,"count":54,"type":"VEC3"},{"bufferView":1,"byteOffset":18036,"componentType":5126,"count":54,"type":"VEC3"},{"bufferView":1,"byteOffset":18684,"componentType":5126,"count":18,"type":"VEC3"},{"bufferView":1,"byteOffset":18900,"componentType":5126,"count":19,"type":"VEC3"},{"bufferView":2,"byteOffset":0,"componentType":5123,"count":111,"type":"SCALAR"},{"bufferView":2,"byteOffset":224,"componentType":5123,"count":252,"type":"SCALAR"},{"bufferView":2,"byteOffset":728,"componentType":5123,"count":24,"type":"SCALAR"},{"bufferView":2,"byteOffset":776,"componentType":5123,"count":105,"type":"SCALAR"},{"bufferView":2,"byteOffset":988,"componentType":5123,"count":72,"type":"SCALAR"},{"bufferView":2,"byteOffset":1132,"componentType":5123,"count":294,"type":"SCALAR"},{"bufferView":2,"byteOffset":1720,"componentType":5123,"count":42,"type":"SCALAR"},{"bufferView":2,"byteOffset":1804,"componentType":5123,"count":42,"type":"SCALAR"},{"bufferView":2,"byteOffset":1888,"componentType":5123,"count":6,"type":"SCALAR"},{"bufferView":2,"byteOffset":1900,"componentType":5123,"count":78,"type":"SCALAR"},{"bufferView":2,"byteOffset":2056,"componentType":5123,"count":69,"type":"SCALAR"},{"bufferView":2,"byteOffset":2196,"componentType":5123,"count":78,"type":"SCALAR"},{"bufferView":2,"byteOffset":2352,"componentType":5123,"count":6,"type":"SCALAR"},{"bufferView":2,"byteOffset":2364,"componentType":5123,"count":42,"type":"SCALAR"},{"bufferView":2,"byteOffset":2448,"componentType":5123,"count":156,"type":"SCALAR"},{"bufferView":2,"byteOffset":2760,"componentType":5123,"count":177,"type":"SCALAR"},{"bufferView":2,"byteOffset":3116,"componentType":5123,"count":18,"type":"SCALAR"},{"bufferView":2,"byteOffset":3152,"componentType":5123,"count":177,"type":"SCALAR"},{"bufferView":2,"byteOffset":3508,"componentType":5123,"count":96,"type":"SCALAR"},{"bufferView":2,"byteOffset":3700,"componentType":5123,"count":102,"type":"SCALAR"},{"bufferView":2,"byteOffset":3904,"componentType":5123,"count":252,"type":"SCALAR"},{"bufferView":2,"byteOffset":4408,"componentType":5123,"count":42,"type":"SCALAR"},{"bufferView":2,"byteOffset":4492,"componentType":5123,"count":261,"type":"SCALAR"},{"bufferView":2,"byteOffset":5016,"componentType":5123,"count":6,"type":"SCALAR"},{"bufferView":2,"byteOffset":5028,"componentType":5123,"count":258,"type":"SCALAR"},{"bufferView":2,"byteOffset":5544,"componentType":5123,"count":144,"type":"SCALAR"},{"bufferView":2,"byteOffset":5832,"componentType":5123,"count":294,"type":"SCALAR"},{"bufferView":2,"byteOffset":6420,"componentType":5123,"count":18,"type":"SCALAR"},{"bufferView":2,"byteOffset":6456,"componentType":5123,"count":441,"type":"SCALAR"},{"bufferView":2,"byteOffset":7340,"componentType":5123,"count":42,"type":"SCALAR"},{"bufferView":2,"byteOffset":7424,"componentType":5123,"count":294,"type":"SCALAR"},{"bufferView":2,"byteOffset":8012,"componentType":5123,"count":54,"type":"SCALAR"},{"bufferView":2,"byteOffset":8120,"componentType":5123,"count":84,"type":"SCALAR"},{"bufferView":2,"byteOffset":8288,"componentType":5123,"count":51,"type":"SCALAR"},{"bufferView":2,"byteOffset":8392,"componentType":5123,"count":105,"type":"SCALAR"},{"bufferView":2,"byteOffset":8604,"componentType":5123,"count":6,"type":"SCALAR"},{"bufferView":2,"byteOffset":8616,"componentType":5123,"count":60,"type":"SCALAR"},{"bufferView":2,"byteOffset":8736,"componentType":5123,"count":6,"type":"SCALAR"},{"bufferView":2,"byteOffset":8748,"componentType":5123,"count":156,"type":"SCALAR"},{"bufferView":2,"byteOffset":9060,"componentType":5123,"count":42,"type":"SCALAR"},{"bufferView":2,"byteOffset":9144,"componentType":5123,"count":18,"type":"SCALAR"},{"bufferView":2,"byteOffset":9180,"componentType":5123,"count":6,"type":"SCALAR"},{"bufferView":2,"byteOffset":9192,"componentType":5123,"count":42,"type":"SCALAR"},{"bufferView":2,"byteOffset":9276,"componentType":5123,"count":6,"type":"SCALAR"},{"bufferView":2,"byteOffset":9288,"componentType":5123,"count":156,"type":"SCALAR"},{"bufferView":2,"byteOffset":9600,"componentType":5123,"count":156,"type":"SCALAR"},{"bufferView":2,"byteOffset":9912,"componentType":5123,"count":48,"type":"SCALAR"},{"bufferView":2,"byteOffset":10008,"componentType":5123,"count":51,"type":"SCALAR"}],"asset":{"generator":"Open CASCADE Technology 7.7 [dev.opencascade.org]","version":"2.0"},"bufferViews":[{"buffer":0,"byteLength":19128,"byteOffset":0,"byteStride":12,"target":34962},{"buffer":0,"byteLength":19128,"byteOffset":19128,"byteStride":12,"target":34962},{"buffer":0,"byteLength":10112,"byteOffset":38256,"target":34963}],"buffers":[{"byteLength":48368,"uri":"pipe2-Slice.0.bin"}],"materials":[{"name":"mat_0","pbrMetallicRoughness":{"baseColorFactor":[0.168269544839859,0.19120186567306519,0.21586069464683534,1.0]},"doubleSided":true}],"meshes":[{"name":"Slice.0","primitives":[{"attributes":{"NORMAL":48,"POSITION":0},"indices":96,"material":0,"mode":4},{"attributes":{"NORMAL":49,"POSITION":1},"indices":97,"material":0,"mode":4},{"attributes":{"NORMAL":50,"POSITION":2},"indices":98,"material":0,"mode":4},{"attributes":{"NORMAL":51,"POSITION":3},"indices":99,"material":0,"mode":4},{"attributes":{"NORMAL":52,"POSITION":4},"indices":100,"material":0,"mode":4},{"attributes":{"NORMAL":53,"POSITION":5},"indices":101,"material":0,"mode":4},{"attributes":{"NORMAL":54,"POSITION":6},"indices":102,"material":0,"mode":4},{"attributes":{"NORMAL":55,"POSITION":7},"indices":103,"material":0,"mode":4},{"attributes":{"NORMAL":56,"POSITION":8},"indices":104,"material":0,"mode":4},{"attributes":{"NORMAL":57,"POSITION":9},"indices":105,"material":0,"mode":4},{"attributes":{"NORMAL":58,"POSITION":10},"indices":106,"material":0,"mode":4},{"attributes":{"NORMAL":59,"POSITION":11},"indices":107,"material":0,"mode":4},{"attributes":{"NORMAL":60,"POSITION":12},"indices":108,"material":0,"mode":4},{"attributes":{"NORMAL":61,"POSITION":13},"indices":109,"material":0,"mode":4},{"attributes":{"NORMAL":62,"POSITION":14},"indices":110,"material":0,"mode":4},{"attributes":{"NORMAL":63,"POSITION":15},"indices":111,"material":0,"mode":4},{"attributes":{"NORMAL":64,"POSITION":16},"indices":112,"material":0,"mode":4},{"attributes":{"NORMAL":65,"POSITION":17},"indices":113,"material":0,"mode":4},{"attributes":{"NORMAL":66,"POSITION":18},"indices":114,"material":0,"mode":4},{"attributes":{"NORMAL":67,"POSITION":19},"indices":115,"material":0,"mode":4},{"attributes":{"NORMAL":68,"POSITION":20},"indices":116,"material":0,"mode":4},{"attributes":{"NORMAL":69,"POSITION":21},"indices":117,"material":0,"mode":4},{"attributes":{"NORMAL":70,"POSITION":22},"indices":118,"material":0,"mode":4},{"attributes":{"NORMAL":71,"POSITION":23},"indices":119,"material":0,"mode":4},{"attributes":{"NORMAL":72,"POSITION":24},"indices":120,"material":0,"mode":4},{"attributes":{"NORMAL":73,"POSITION":25},"indices":121,"material":0,"mode":4},{"attributes":{"NORMAL":74,"POSITION":26},"indices":122,"material":0,"mode":4},{"attributes":{"NORMAL":75,"POSITION":27},"indices":123,"material":0,"mode":4},{"attributes":{"NORMAL":76,"POSITION":28},"indices":124,"material":0,"mode":4},{"attributes":{"NORMAL":77,"POSITION":29},"indices":125,"material":0,"mode":4},{"attributes":{"NORMAL":78,"POSITION":30},"indices":126,"material":0,"mode":4},{"attributes":{"NORMAL":79,"POSITION":31},"indices":127,"material":0,"mode":4},{"attributes":{"NORMAL":80,"POSITION":32},"indices":128,"material":0,"mode":4},{"attributes":{"NORMAL":81,"POSITION":33},"indices":129,"material":0,"mode":4},{"attributes":{"NORMAL":82,"POSITION":34},"indices":130,"material":0,"mode":4},{"attributes":{"NORMAL":83,"POSITION":35},"indices":131,"material":0,"mode":4},{"attributes":{"NORMAL":84,"POSITION":36},"indices":132,"material":0,"mode":4},{"attributes":{"NORMAL":85,"POSITION":37},"indices":133,"material":0,"mode":4},{"attributes":{"NORMAL":86,"POSITION":38},"indices":134,"material":0,"mode":4},{"attributes":{"NORMAL":87,"POSITION":39},"indices":135,"material":0,"mode":4},{"attributes":{"NORMAL":88,"POSITION":40},"indices":136,"material":0,"mode":4},{"attributes":{"NORMAL":89,"POSITION":41},"indices":137,"material":0,"mode":4},{"attributes":{"NORMAL":90,"POSITION":42},"indices":138,"material":0,"mode":4},{"attributes":{"NORMAL":91,"POSITION":43},"indices":139,"material":0,"mode":4},{"attributes":{"NORMAL":92,"POSITION":44},"indices":140,"material":0,"mode":4},{"attributes":{"NORMAL":93,"POSITION":45},"indices":141,"material":0,"mode":4},{"attributes":{"NORMAL":94,"POSITION":46},"indices":142,"material":0,"mode":4},{"attributes":{"NORMAL":95,"POSITION":47},"indices":143,"material":0,"mode":4}]}],"nodes":[{"mesh":0,"name":"Slice.0"}],"scene":0,"scenes":[{"nodes":[0]}]}