{"accessors":[{"bufferView":0,"byteOffset":0,"componentType":5126,"count":49,"max":[1.9908247744101845e-17,0.012500000009896349,2.75e-18],"min":[-0.012408860926225677,-0.0125,-0.051250000000000007],"type":"VEC3"},{"bufferView":0,"byteOffset":588,"componentType":5126,"count":83,"max":[2.025384024505564e-17,0.02875,6.325e-18],"min":[-0.02875,-0.02875,-6.325e-18],"type":"VEC3"},{"bufferView":0,"byteOffset":1584,"componentType":5126,"count":25,"max":[1.9908247744101845e-17,0.03,0.005000000000000002],"min":[5.2836104987101669e-18,-0.02075,-0.10624999999999999],"type":"VEC3"},{"bufferView":0,"byteOffset":1884,"componentType":5126,"count":161,"max":[1.7418749618844446e-17,0.01875,-0.051250000000000007],"min":[-0.012408860926225677,-0.0125,-0.0825],"type":"VEC3"},{"bufferView":0,"byteOffset":3816,"componentType":5126,"count":26,"max":[1.3627987627273797e-17,0.05500000000000015,-0.026250000000000004],"min":[0.0,0.010000000000000008,-0.06000000000000003],"type":"VEC3"},{"bufferView":0,"byteOffset":4128,"componentType":5126,"count":19,"max":[1.3627987627273797e-17,0.02500000000000004,-0.018750000000000004],"min":[-0.010000000000000016,0.007500000000000007,-0.02875000000368722],"type":"VEC3"},{"bufferView":0,"byteOffset":4356,"componentType":5126,"count":19,"max":[1.124100812432971e-17,0.02500000000000004,-0.008749999996407276],"min":[-0.010000000000000016,0.007500000000000007,-0.01875000000000002],"type":"VEC3"},{"bufferView":0,"byteOffset":4584,"componentType":5126,"count":10,"max":[1.186763449571866e-17,0.028750000000000058,0.0050000000000000048],"min":[7.561268435221578e-18,0.010000000000000002,-0.011250000000000003],"type":"VEC3"},{"bufferView":0,"byteOffset":4704,"componentType":5126,"count":30,"max":[2.025384024505564e-17,0.02875,0.005000000000000006],"min":[-0.02875,-0.02875,-6.325e-18],"type":"VEC3"},{"bufferView":0,"byteOffset":5064,"componentType":5126,"count":4,"max":[2.025384024505564e-17,-0.02575,0.005000000000000007],"min":[-6e-18,-0.02875,-6.325e-18],"type":"VEC3"},{"bufferView":0,"byteOffset":5112,"componentType":5126,"count":28,"max":[1.8959507069164188e-17,-0.02075,0.005000000000000007],"min":[-0.0024817721852451359,-0.025750000000000003,-5.6940179995843288e-18],"type":"VEC3"},{"bufferView":0,"byteOffset":5448,"componentType":5126,"count":28,"max":[8.796068546464727e-18,0.025750000000000007,0.005000000000000006],"min":[-0.0024817721852451377,0.02075,-5e-18],"type":"VEC3"},{"bufferView":0,"byteOffset":5784,"componentType":5126,"count":4,"max":[8.14421216536897e-18,0.02875,0.005000000000000006],"min":[3e-18,0.025750000000000003,-5e-18],"type":"VEC3"},{"bufferView":0,"byteOffset":5832,"componentType":5126,"count":54,"max":[-0.02075,0.0024817721852451377,0.005000000000000002],"min":[-0.025750000000000003,-0.0024817721852451355,-1.9357823044912065e-18],"type":"VEC3"},{"bufferView":0,"byteOffset":6480,"componentType":5126,"count":83,"max":[2.025384024505564e-17,0.02875,0.005000000000000007],"min":[-0.02875,-0.02875,0.004999999999999993],"type":"VEC3"},{"bufferView":0,"byteOffset":7476,"componentType":5126,"count":49,"max":[1.615544574432588e-17,0.010000000006193883,0.005000000000000002],"min":[-0.009927088740980549,-0.010000000000000008,-0.05125000000000004],"type":"VEC3"},{"bufferView":0,"byteOffset":8064,"componentType":5126,"count":119,"max":[1.615544574432588e-17,0.018749999999999997,-0.05125000000000004],"min":[-0.01,-0.010000000000000008,-0.08],"type":"VEC3"},{"bufferView":0,"byteOffset":9492,"componentType":5126,"count":36,"max":[7.382983113757292e-18,0.05500000000000004,-0.07000000000000002],"min":[-0.01,0.01874999999999998,-0.08000000000615665],"type":"VEC3"},{"bufferView":0,"byteOffset":9924,"componentType":5126,"count":34,"max":[7.382983113757292e-18,0.04500000000268166,-0.07661886887074043],"min":[-0.0074960372691347779,0.029999999997318288,-0.10624999999999999],"type":"VEC3"},{"bufferView":0,"byteOffset":10332,"componentType":5126,"count":28,"max":[7.044813998280222e-18,0.0475,-0.10624999999999999],"min":[-0.009927088740980542,0.0275,-0.10624999999999999],"type":"VEC3"},{"bufferView":0,"byteOffset":10668,"componentType":5126,"count":37,"max":[8.021361352916756e-18,0.047500000003687207,-0.07750026350933463],"min":[-0.009999802359947546,0.027499999996407306,-0.10624999999999999],"type":"VEC3"},{"bufferView":0,"byteOffset":11112,"componentType":5126,"count":51,"max":[1.2633038745185759e-17,0.05000000000000001,-0.05749999999999999],"min":[-0.012408860926225679,0.018749999999999994,-0.08250000000989635],"type":"VEC3"},{"bufferView":0,"byteOffset":11724,"componentType":5126,"count":84,"max":[3.552713678800501e-18,0.050000000000000179,-0.04500000000000014],"min":[-0.024999999999999999,0.049999999999999999,-0.09500000000000014],"type":"VEC3"},{"bufferView":0,"byteOffset":12732,"componentType":5126,"count":4,"max":[3.552713678800501e-18,0.05500000000000015,-0.04500000000000014],"min":[-0.019999999999999998,0.05000000000000015,-0.045000000000000147],"type":"VEC3"},{"bufferView":0,"byteOffset":12780,"componentType":5126,"count":85,"max":[1.8369701987210297e-18,0.055000000000000198,-0.04500000000000014],"min":[-0.024999999999999999,0.05500000000000003,-0.09500000000000014],"type":"VEC3"},{"bufferView":0,"byteOffset":13800,"componentType":5126,"count":16,"max":[1.0106430996148606e-17,0.05500000000000004,-0.06],"min":[-0.01,0.018749999999999983,-0.07000000000000005],"type":"VEC3"},{"bufferView":0,"byteOffset":13992,"componentType":5126,"count":18,"max":[1.199040866595169e-17,0.028750000000000058,-0.018750000000000004],"min":[-0.007500000000000009,0.006614378277661487,-0.026250000002731819],"type":"VEC3"},{"bufferView":0,"byteOffset":14208,"componentType":5126,"count":60,"max":[1.3398442994652853e-17,0.02875000000000006,-0.006250000000000014],"min":[-0.0225,0.028750000000000044,-0.031250000000000017],"type":"VEC3"},{"bufferView":0,"byteOffset":14928,"componentType":5126,"count":8,"max":[1.3398442994652853e-17,0.02875000000000005,-0.03004384878631565],"min":[-0.00535714285714286,0.02500000000000005,-0.031250000000000017],"type":"VEC3"},{"bufferView":0,"byteOffset":15024,"componentType":5126,"count":60,"max":[1.3398442994652853e-17,0.02500000000000005,-0.006250000000000014],"min":[-0.0225,0.025,-0.031250000000000017],"type":"VEC3"},{"bufferView":0,"byteOffset":15744,"componentType":5126,"count":8,"max":[7.561268435221578e-18,0.028750000000000044,-0.006250000000000014],"min":[-0.005357142857142856,0.025000000000000044,-0.007456151213684374],"type":"VEC3"},{"bufferView":0,"byteOffset":15840,"componentType":5126,"count":20,"max":[1.1518563880486e-17,0.028750000000000058,-0.01124999999726822],"min":[-0.007500000000000009,0.006614378277661487,-0.018750000000000025],"type":"VEC3"},{"bufferView":0,"byteOffset":16080,"componentType":5126,"count":8,"max":[4.440892098500626e-18,0.05500000000000017,-0.08000000000000003],"min":[-2.296212748401287e-18,0.045,-0.10624999999999999],"type":"VEC3"},{"bufferView":0,"byteOffset":16176,"componentType":5126,"count":16,"max":[-0.019999999999999998,0.05500000000000016,-0.04500000000000014],"min":[-0.024999999999999999,0.05000000000000015,-0.050000000000000138],"type":"VEC3"},{"bufferView":0,"byteOffset":16368,"componentType":5126,"count":4,"max":[-0.024999999999999999,0.05500000000000017,-0.050000000000000138],"min":[-0.024999999999999999,0.050000000000000158,-0.09000000000000014],"type":"VEC3"},{"bufferView":0,"byteOffset":16416,"componentType":5126,"count":16,"max":[-0.019999999999999998,0.05500000000000017,-0.09000000000000014],"min":[-0.024999999999999999,0.05000000000000016,-0.09500000000000014],"type":"VEC3"},{"bufferView":0,"byteOffset":16608,"componentType":5126,"count":4,"max":[3.552713678800501e-18,0.05500000000000017,-0.09500000000000014],"min":[-0.019999999999999998,0.05000000000000016,-0.09500000000000014],"type":"VEC3"},{"bufferView":0,"byteOffset":16656,"componentType":5126,"count":54,"max":[-0.0175,0.05500000000000019,-0.04751822781475485],"min":[-0.0225,0.05000000000000017,-0.052481772185245138],"type":"VEC3"},{"bufferView":0,"byteOffset":17304,"componentType":5126,"count":54,"max":[-0.0175,0.055000000000000198,-0.08751822781475485],"min":[-0.0225,0.05000000000000017,-0.09248177218524514],"type":"VEC3"},{"bufferView":0,"byteOffset":17952,"componentType":5126,"count":4,"max":[-0.005357142857142856,0.028750000000000048,-0.007456151213684374],"min":[-0.019642857142857144,0.025000000000000044,-0.014232460485473759],"type":"VEC3"},{"bufferView":0,"byteOffset":18000,"componentType":5126,"count":22,"max":[-0.019642857142857144,0.028750000000000048,-0.014232460485473758],"min":[-0.0225,0.025000000000000048,-0.02326753951452627],"type":"VEC3"},{"bufferView":0,"byteOffset":18264,"componentType":5126,"count":4,"max":[-0.00535714285714286,0.02875000000000005,-0.023267539514526267],"min":[-0.019642857142857147,0.025000000000000048,-0.030043848786315654],"type":"VEC3"},{"bufferView":0,"byteOffset":18312,"componentType":5126,"count":54,"max":[-0.015,0.02875000000000006,-0.016268227814754869],"min":[-0.02,0.025000000000000044,-0.021231772185245139],"type":"VEC3"},{"bufferView":1,"byteOffset":0,"componentType":5126,"count":49,"type":"VEC3"},{"bufferView":1,"byteOffset":588,"componentType":5126,"count":83,"type":"VEC3"},{"bufferView":1,"byteOffset":1584,"componentType":5126,"count":25,"type":"VEC3"},{"bufferView":1,"byteOffset":1884,"componentType":5126,"count":161,"type":"VEC3"},{"bufferView":1,"byteOffset":3816,"componentType":5126,"count":26,"type":"VEC3"},{"bufferView":1,"byteOffset":4128,"componentType":5126,"count":19,"type":"VEC3"},{"bufferView":1,"byteOffset":4356,"componentType":5126,"count":19,"type":"VEC3"},{"bufferView":1,"byteOffset":4584,"componentType":5126,"count":10,"type":"VEC3"},{"bufferView":1,"byteOffset":4704,"componentType":5126,"count":30,"type":"VEC3"},{"bufferView":1,"byteOffset":5064,"componentType":5126,"count":4,"type":"VEC3"},{"bufferView":1,"byteOffset":5112,"componentType":5126,"count":28,"type":"VEC3"},{"bufferView":1,"byteOffset":5448,"componentType":5126,"count":28,"type":"VEC3"},{"bufferView":1,"byteOffset":5784,"componentType":5126,"count":4,"type":"VEC3"},{"bufferView":1,"byteOffset":5832,"componentType":5126,"count":54,"type":"VEC3"},{"bufferView":1,"byteOffset":6480,"componentType":5126,"count":83,"type":"VEC3"},{"bufferView":1,"byteOffset":7476,"componentType":5126,"count":49,"type":"VEC3"},{"bufferView":1,"byteOffset":8064,"componentType":5126,"count":119,"type":"VEC3"},{"bufferView":1,"byteOffset":9492,"componentType":5126,"count":36,"type":"VEC3"},{"bufferView":1,"byteOffset":9924,"componentType":5126,"count":34,"type":"VEC3"},{"bufferView":1,"byteOffset":10332,"componentType":5126,"count":28,"type":"VEC3"},{"bufferView":1,"byteOffset":10668,"componentType":5126,"count":37,"type":"VEC3"},{"bufferView":1,"byteOffset":11112,"componentType":5126,"count":51,"type":"VEC3"},{"bufferView":1,"byteOffset":11724,"componentType":5126,"count":84,"type":"VEC3"},{"bufferView":1,"byteOffset":12732,"componentType":5126,"count":4,"type":"VEC3"},{"bufferView":1,"byteOffset":12780,"componentType":5126,"count":85,"type":"VEC3"},{"bufferView":1,"byteOffset":13800,"componentType":5126,"count":16,"type":"VEC3"},{"bufferView":1,"byteOffset":13992,"componentType":5126,"count":18,"type":"VEC3"},{"bufferView":1,"byteOffset":14208,"componentType":5126,"count":60,"type":"VEC3"},{"bufferView":1,"byteOffset":14928,"componentType":5126,"count":8,"type":"VEC3"},{"bufferView":1,"byteOffset":15024,"componentType":5126,"count":60,"type":"VEC3"},{"bufferView":1,"byteOffset":15744,"componentType":5126,"count":8,"type":"VEC3"},{"bufferView":1,"byteOffset":15840,"componentType":5126,"count":20,"type":"VEC3"},{"bufferView":1,"byteOffset":16080,"componentType":5126,"count":8,"type":"VEC3"},{"bufferView":1,"byteOffset":16176,"componentType":5126,"count":16,"type":"VEC3"},{"bufferView":1,"byteOffset":16368,"componentType":5126,"count":4,"type":"VEC3"},{"bufferView":1,"byteOffset":16416,"componentType":5126,"count":16,"type":"VEC3"},{"bufferView":1,"byteOffset":16608,"componentType":5126,"count":4,"type":"VEC3"},{"bufferView":1,"byteOffset":16656,"componentType":5126,"count":54,"type":"VEC3"},{"bufferView":1,"byteOffset":17304,"componentType":5126,"count":54,"type":"VEC3"},{"bufferView":1,"byteOffset":17952,"componentType":5126,"count":4,"type":"VEC3"},{"bufferView":1,"byteOffset":18000,"componentType":5126,"count":22,"type":"VEC3"},{"bufferView":1,"byteOffset":18264,"componentType":5126,"count":4,"type":"VEC3"},{"bufferView":1,"byteOffset":18312,"componentType":5126,"count":54,"type":"VEC3"},{"bufferView":2,"byteOffset":0,"componentType":5123,"count":141,"type":"SCALAR"},{"bufferView":2,"byteOffset":284,"componentType":5123,"count":249,"type":"SCALAR"},{"bufferView":2,"byteOffset":784,"componentType":5123,"count":69,"type":"SCALAR"},{"bufferView":2,"byteOffset":924,"componentType":5123,"count":837,"type":"SCALAR"},{"bufferView":2,"byteOffset":2600,"componentType":5123,"count":72,"type":"SCALAR"},{"bufferView":2,"byteOffset":2744,"componentType":5123,"count":51,"type":"SCALAR"},{"bufferView":2,"byteOffset":2848,"componentType":5123,"count":51,"type":"SCALAR"},{"bufferView":2,"byteOffset":2952,"componentType":5123,"count":24,"type":"SCALAR"},{"bufferView":2,"byteOffset":3000,"componentType":5123,"count":84,"type":"SCALAR"},{"bufferView":2,"byteOffset":3168,"componentType":5123,"count":6,"type":"SCALAR"},{"bufferView":2,"byteOffset":3180,"componentType":5123,"count":78,"type":"SCALAR"},{"bufferView":2,"byteOffset":3336,"componentType":5123,"count":78,"type":"SCALAR"},{"bufferView":2,"byteOffset":3492,"componentType":5123,"count":6,"type":"SCALAR"},{"bufferView":2,"byteOffset":3504,"componentType":5123,"count":156,"type":"SCALAR"},{"bufferView":2,"byteOffset":3816,"componentType":5123,"count":249,"type":"SCALAR"},{"bufferView":2,"byteOffset":4316,"componentType":5123,"count":141,"type":"SCALAR"},{"bufferView":2,"byteOffset":4600,"componentType":5123,"count":585,"type":"SCALAR"},{"bufferView":2,"byteOffset":5772,"componentType":5123,"count":102,"type":"SCALAR"},{"bufferView":2,"byteOffset":5976,"componentType":5123,"count":96,"type":"SCALAR"},{"bufferView":2,"byteOffset":6168,"componentType":5123,"count":78,"type":"SCALAR"},{"bufferView":2,"byteOffset":6324,"componentType":5123,"count":105,"type":"SCALAR"},{"bufferView":2,"byteOffset":6536,"componentType":5123,"count":147,"type":"SCALAR"},{"bufferView":2,"byteOffset":6832,"componentType":5123,"count":258,"type":"SCALAR"},{"bufferView":2,"byteOffset":7348,"componentType":5123,"count":6,"type":"SCALAR"},{"bufferView":2,"byteOffset":7360,"componentType":5123,"count":261,"type":"SCALAR"},{"bufferView":2,"byteOffset":7884,"componentType":5123,"count":42,"type":"SCALAR"},{"bufferView":2,"byteOffset":7968,"componentType":5123,"count":48,"type":"SCALAR"},{"bufferView":2,"byteOffset":8064,"componentType":5123,"count":180,"type":"SCALAR"},{"bufferView":2,"byteOffset":8424,"componentType":5123,"count":18,"type":"SCALAR"},{"bufferView":2,"byteOffset":8460,"componentType":5123,"count":180,"type":"SCALAR"},{"bufferView":2,"byteOffset":8820,"componentType":5123,"count":18,"type":"SCALAR"},{"bufferView":2,"byteOffset":8856,"componentType":5123,"count":54,"type":"SCALAR"},{"bufferView":2,"byteOffset":8964,"componentType":5123,"count":18,"type":"SCALAR"},{"bufferView":2,"byteOffset":9000,"componentType":5123,"count":42,"type":"SCALAR"},{"bufferView":2,"byteOffset":9084,"componentType":5123,"count":6,"type":"SCALAR"},{"bufferView":2,"byteOffset":9096,"componentType":5123,"count":42,"type":"SCALAR"},{"bufferView":2,"byteOffset":9180,"componentType":5123,"count":6,"type":"SCALAR"},{"bufferView":2,"byteOffset":9192,"componentType":5123,"count":156,"type":"SCALAR"},{"bufferView":2,"byteOffset":9504,"componentType":5123,"count":156,"type":"SCALAR"},{"bufferView":2,"byteOffset":9816,"componentType":5123,"count":6,"type":"SCALAR"},{"bufferView":2,"byteOffset":9828,"componentType":5123,"count":60,"type":"SCALAR"},{"bufferView":2,"byteOffset":9948,"componentType":5123,"count":6,"type":"SCALAR"},{"bufferView":2,"byteOffset":9960,"componentType":5123,"count":156,"type":"SCALAR"}],"asset":{"generator":"Open CASCADE Technology 7.7 [dev.opencascade.org]","version":"2.0"},"bufferViews":[{"buffer":0,"byteLength":18960,"byteOffset":0,"byteStride":12,"target":34962},{"buffer":0,"byteLength":18960,"byteOffset":18960,"byteStride":12,"target":34962},{"buffer":0,"byteLength":10272,"byteOffset":37920,"target":34963}],"buffers":[{"byteLength":48192,"uri":"pipe2-SliceB.0.bin"}],"materials":[{"name":"mat_0","pbrMetallicRoughness":{"baseColorFactor":[0.168269544839859,0.19120186567306519,0.21586069464683534,1.0]},"doubleSided":true}],"meshes":[{"name":"Slice.1","primitives":[{"attributes":{"NORMAL":43,"POSITION":0},"indices":86,"material":0,"mode":4},{"attributes":{"NORMAL":44,"POSITION":1},"indices":87,"material":0,"mode":4},{"attributes":{"NORMAL":45,"POSITION":2},"indices":88,"material":0,"mode":4},{"attributes":{"NORMAL":46,"POSITION":3},"indices":89,"material":0,"mode":4},{"attributes":{"NORMAL":47,"POSITION":4},"indices":90,"material":0,"mode":4},{"attributes":{"NORMAL":48,"POSITION":5},"indices":91,"material":0,"mode":4},{"attributes":{"NORMAL":49,"POSITION":6},"indices":92,"material":0,"mode":4},{"attributes":{"NORMAL":50,"POSITION":7},"indices":93,"material":0,"mode":4},{"attributes":{"NORMAL":51,"POSITION":8},"indices":94,"material":0,"mode":4},{"attributes":{"NORMAL":52,"POSITION":9},"indices":95,"material":0,"mode":4},{"attributes":{"NORMAL":53,"POSITION":10},"indices":96,"material":0,"mode":4},{"attributes":{"NORMAL":54,"POSITION":11},"indices":97,"material":0,"mode":4},{"attributes":{"NORMAL":55,"POSITION":12},"indices":98,"material":0,"mode":4},{"attributes":{"NORMAL":56,"POSITION":13},"indices":99,"material":0,"mode":4},{"attributes":{"NORMAL":57,"POSITION":14},"indices":100,"material":0,"mode":4},{"attributes":{"NORMAL":58,"POSITION":15},"indices":101,"material":0,"mode":4},{"attributes":{"NORMAL":59,"POSITION":16},"indices":102,"material":0,"mode":4},{"attributes":{"NORMAL":60,"POSITION":17},"indices":103,"material":0,"mode":4},{"attributes":{"NORMAL":61,"POSITION":18},"indices":104,"material":0,"mode":4},{"attributes":{"NORMAL":62,"POSITION":19},"indices":105,"material":0,"mode":4},{"attributes":{"NORMAL":63,"POSITION":20},"indices":106,"material":0,"mode":4},{"attributes":{"NORMAL":64,"POSITION":21},"indices":107,"material":0,"mode":4},{"attributes":{"NORMAL":65,"POSITION":22},"indices":108,"material":0,"mode":4},{"attributes":{"NORMAL":66,"POSITION":23},"indices":109,"material":0,"mode":4},{"attributes":{"NORMAL":67,"POSITION":24},"indices":110,"material":0,"mode":4},{"attributes":{"NORMAL":68,"POSITION":25},"indices":111,"material":0,"mode":4},{"attributes":{"NORMAL":69,"POSITION":26},"indices":112,"material":0,"mode":4},{"attributes":{"NORMAL":70,"POSITION":27},"indices":113,"material":0,"mode":4},{"attributes":{"NORMAL":71,"POSITION":28},"indices":114,"material":0,"mode":4},{"attributes":{"NORMAL":72,"POSITION":29},"indices":115,"material":0,"mode":4},{"attributes":{"NORMAL":73,"POSITION":30},"indices":116,"material":0,"mode":4},{"attributes":{"NORMAL":74,"POSITION":31},"indices":117,"material":0,"mode":4},{"attributes":{"NORMAL":75,"POSITION":32},"indices":118,"material":0,"mode":4},{"attributes":{"NORMAL":76,"POSITION":33},"indices":119,"material":0,"mode":4},{"attributes":{"NORMAL":77,"POSITION":34},"indices":120,"material":0,"mode":4},{"attributes":{"NORMAL":78,"POSITION":35},"indices":121,"material":0,"mode":4},{"attributes":{"NORMAL":79,"POSITION":36},"indices":122,"material":0,"mode":4},{"attributes":{"NORMAL":80,"POSITION":37},"indices":123,"material":0,"mode":4},{"attributes":{"NORMAL":81,"POSITION":38},"indices":124,"material":0,"mode":4},{"attributes":{"NORMAL":82,"POSITION":39},"indices":125,"material":0,"mode":4},{"attributes":{"NORMAL":83,"POSITION":40},"indices":126,"material":0,"mode":4},{"attributes":{"NORMAL":84,"POSITION":41},"indices":127,"material":0,"mode":4},{"attributes":{"NORMAL":85,"POSITION":42},"indices":128,"material":0,"mode":4}]}],"nodes":[{"mesh":0,"name":"Slice.1"}],"scene":0,"scenes":[{"nodes":[0]}]}